<mxfile host="drawio.corp.amazon.com" modified="2025-02-03T20:26:36.512Z" agent="Mozilla/5.0 (Windows NT 10.0; Win64; x64) AppleWebKit/537.36 (KHTML, like Gecko) Chrome/132.0.0.0 Safari/537.36" etag="Fk8nWnIF_6kynOnhlrXy" version="21.7.4" type="device">
  <diagram name="Page-1" id="zhHeA-YvoruUrN6uZoT9">
    <mxGraphModel dx="1333" dy="751" grid="1" gridSize="10" guides="1" tooltips="1" connect="1" arrows="1" fold="1" page="1" pageScale="1" pageWidth="1100" pageHeight="850" math="0" shadow="0">
      <root>
        <mxCell id="0" />
        <mxCell id="4ZSZ7nq5zMxmgsGtWjFn-215" value="Pattern 3: BDA" style="locked=1;" parent="0" />
        <mxCell id="4ZSZ7nq5zMxmgsGtWjFn-223" style="edgeStyle=orthogonalEdgeStyle;rounded=0;orthogonalLoop=1;jettySize=auto;html=1;exitX=0.5;exitY=1;exitDx=0;exitDy=0;" parent="4ZSZ7nq5zMxmgsGtWjFn-215" edge="1">
          <mxGeometry relative="1" as="geometry">
            <mxPoint x="535" y="665" as="sourcePoint" />
            <mxPoint x="535" y="665" as="targetPoint" />
          </mxGeometry>
        </mxCell>
        <mxCell id="4ZSZ7nq5zMxmgsGtWjFn-224" style="edgeStyle=orthogonalEdgeStyle;rounded=0;orthogonalLoop=1;jettySize=auto;html=1;entryX=0;entryY=0.5;entryDx=0;entryDy=0;" parent="4ZSZ7nq5zMxmgsGtWjFn-215" source="4ZSZ7nq5zMxmgsGtWjFn-225" target="4ZSZ7nq5zMxmgsGtWjFn-227" edge="1">
          <mxGeometry relative="1" as="geometry" />
        </mxCell>
        <mxCell id="4ZSZ7nq5zMxmgsGtWjFn-225" value="Invoke BDA Fn." style="outlineConnect=0;dashed=0;verticalLabelPosition=bottom;verticalAlign=top;align=center;html=1;shape=mxgraph.aws3.lambda_function;fillColor=#F58534;gradientColor=none;" parent="4ZSZ7nq5zMxmgsGtWjFn-215" vertex="1">
          <mxGeometry x="500.5" y="674" width="69" height="72" as="geometry" />
        </mxCell>
        <mxCell id="4ZSZ7nq5zMxmgsGtWjFn-226" style="edgeStyle=orthogonalEdgeStyle;rounded=0;orthogonalLoop=1;jettySize=auto;html=1;exitX=1;exitY=0.5;exitDx=0;exitDy=0;entryX=0;entryY=0.5;entryDx=0;entryDy=0;entryPerimeter=0;" parent="4ZSZ7nq5zMxmgsGtWjFn-215" source="4ZSZ7nq5zMxmgsGtWjFn-227" target="4ZSZ7nq5zMxmgsGtWjFn-228" edge="1">
          <mxGeometry relative="1" as="geometry" />
        </mxCell>
        <mxCell id="4ZSZ7nq5zMxmgsGtWjFn-227" value="Data Automation&#xa;Â Project" style="shape=image;verticalLabelPosition=bottom;labelBackgroundColor=default;verticalAlign=top;aspect=fixed;imageAspect=0;image=data:image/png,iVBORw0KGgoAAAANSUhEUgAAAE0AAABOCAYAAABlnZseAAAAAXNSR0IArs4c6QAAAARnQU1BAACxjwv8YQUAAAAJcEhZcwAAEnQAABJ0Ad5mH3gAAAfwSURBVHhe7ZwJUFVVGMc/NjcUEzXRUNEBCVRE3AhEEE0WpdzSGre0aXS0aVInrbS0UacscbJyJqfJFMfQtNXEDRGX3HLBfckRBRNNpTRXQOj8j/fi83Uf3Hs49wF2fzN37rnn3Cfz/u8753zfd87RxWVFcglZGMJVuVsYwBJNAEs0ASzRBLBEE8ASTQBLNAEs0QSwRBPAEk0ASzQBnC5afFM/2t9nOJ3p+wrNC42m8IZNyUVpqy44LWD3r/sEJXeMoaRmrZWah+Te/odW5Z6m1ezacy2PqnoGwXTR6rp70LTgcJoYGEY1XN3oRmEBzTq2i3YxcQb5BtDg5m2oeZ16ytvVQ0DTREOXG+4XTB+GRFHT2p78y3+dfZSmHd5Bl+/e5u8AvNeNdVGI94KdgJl/5lLsllXKU9XBFNG6ePvQgrCefLxS6bppOe3Lv6w8aWMr4KTATrzOdeV8fneELxN5bocoimncnD9nXsmlqYe20wVmsWYhVbQmterQnJDuNLpVOy5A3p1b3MpAeV/enuKhk/i9rM9BsKy4EeRdo5ZS84D8grsUumGZacJJmT09XF1pMrOMU4ljaAwTrLD4Ps098RsFpi1W3jAHWBgEW5eXTS3WfMkvlFGHNrOQIlpGzyH0MXMfvDxq0JqLZ6nduqX09uHtdLOoUHnDHNQuOXZfOrcqXONYGahtZiBFtMhGzfg9cdv39Pz2H+nMzb/5s9m4Mwt3hJuLed6fVOd2fd45peQcNl/O4fdFnXvz8Q3XF6wMMtjMaxZSRXM20488cF8SmrainKRX+YUy6tBmFpUmGmZHdYYU5ezN6xSRnkrLzh1XaoiXUYc2s6jWlgayb12nUXvWK0/Ey6gzk2ovWmVgumhwTo06tlUdy9IEsEQToMKxZ99mrWlNVH9eTmKO7VoWEZQHgvJdvV/iZUddV3RmdcZQIGxpwV4NaX30oFLBAMqoQ5sWNV3d6EMWE+7o9SJ/Rk5NJnp+MBkYtrSGLBie2S6Cxvl34KHKXwV3adax3bzt3bbh1IC1F5UU06Izh2nm0Z10jbUDWNfirnEU5OVN90tKKPnUPppxZCfdY8G9FnqyHJWFbtGQyRjvH0rvlSGMKuhY/xByd3EtFdSntidNDuzMRT5xI59GM19qb/4l/hlHPBaibWddSg3MN146T5MOZtLxG9f4sz3onvM7xlAfn5ZKDXHrmndyHxfZkXXZYoZorevWp9ntu1OvJi2oqLhYOGGpWzT1S+gd7IHtJBG+6ZtyrcsW2aK18qxPO9nkg0SpLSIJS8MTgb1gEOazsFjl6VFs3zUimBm83z6CCyYjYWnY0tRf3r4LPpu5ujRVY4uoxaifkw3EUq0KqSRkRpCWf+rnRbxOD4YtDYM9LOtQ/EguGAZ7jG/brlxQ3nj8MWxpEMnR7GlPbzbgbowZzMt9mCWma1iiI2SPaSnhCTS8ZRDvkkiPAyQvkX9LzTlJw3al8To9GBYNlDd7wuyTQ6P5OqYtWASenLVV16ArW7RKnQgwe8Zv/U5TMPhyU4O60ImEl7lgt4oK+QILLpRRhza8g3edCXJskZtTaUXOKbpy7w4fx2BhIkt9whOBFnE+frQueiAv21uVvfVBeFisI2Rbmkyk/twbLp2jBacP8PFr6M5fHvkFUUYd2vBOWYJVdaRamkxsx1CjYMLpz4aR2/eLlBq5OHdgcRKYtRcqS3lmYNjSjOTMBvj601sstjOKrati1LLhdO/tM4zquLnTmL0baEn2MaVFHrot7derF/ndSM5sytNdNDfxOQKTxcqIfqWCiYBZ/bX9m3n58069aFVkEl0bMJ7+eG4sLX8mkf+NiqLb0uAiTPAPlZozU8G/ja1V04PDydPdg7snuAPRMVR1Zu2RsaNIt6UVFhfTJ2zWa7N2MS38PYvXTQgIpdN9x9AbbcJKrQuCIWcWmZ7Ku2Z5gqErHoobSR+ERHGh4KoErVuitIqDXZfAjB1Fui3NnormzOz9tpNM6NcPZJSGWhWdra+yLgmBZATo9giLpmI0Z6bVFWcf303zT+3n1qyi1+VIY9bTb9sPytNDMIZhQ6GtaNiael6CaBV2OYzkzBx1RWwAtBXMCIks4NYCWVmgtaNIbROlwpYGyutK5XVFLfR0z7Lewd80a2upqc6towC+w4YUQ2kiESAKxEFQju5YkQDdHlNFi32yhdSuaBSIgzwZxi9cKFdUMGCqaGUF8NUZU0UDEw9mSu+KSCgu7RavPBEvo85ZmC6abLB2iQzsCL9gpYZ4GXVocwaVKlp0Y19+Es8Ic9p311yKQx0Wgp2BVNFwLFEPWNH6isWoGbFDuKOLxQ29xDJfD2idHcDKuTOQIpqaAUnrMZB+YtEBjik6YiTrSicSR9PoVm2pgIVaM1jIpbVe6ghsJ3BEWW0ykSJa7JZv6c2srfxYIlJBRxNGcVcDxxZVAuo1oPSYwbSEDdqNatamDCZUyPoUvkEG4unFTE9fL1IiAhWMK/YHyuDMtvT0oneCu/FcG1aCIHCKzTZ2LRx5+2Z6+nqRKppKZ+8m9GlY7CNHF/FHcN5zStY2/gW10Ht0EcI5+7iiLaaIBiCAdUhWkLKOYw/0DfiPUDiOjaPYCLv+d8ex7cGMiqRlP401g+oglC1OE00FvtxHHXqQl0dNLlR1+R8SbHG6aI8D1S72rApYoglgiSaAJZoAlmgCWKIJYIkmgCWaAJZohiH6F+Y3aO0aEfmSAAAAAElFTkSuQmCC;" parent="4ZSZ7nq5zMxmgsGtWjFn-215" vertex="1">
          <mxGeometry x="617" y="676.37" width="66.39" height="67.26" as="geometry" />
        </mxCell>
        <mxCell id="4ZSZ7nq5zMxmgsGtWjFn-228" value="Process Results Fn." style="outlineConnect=0;dashed=0;verticalLabelPosition=bottom;verticalAlign=top;align=center;html=1;shape=mxgraph.aws3.lambda_function;fillColor=#F58534;gradientColor=none;" parent="4ZSZ7nq5zMxmgsGtWjFn-215" vertex="1">
          <mxGeometry x="730" y="674" width="69" height="72" as="geometry" />
        </mxCell>
        <mxCell id="4ZSZ7nq5zMxmgsGtWjFn-229" value="&lt;u style=&quot;border-color: var(--border-color); color: rgb(0, 0, 0); text-align: center; background-color: rgb(255, 255, 255);&quot;&gt;Pattern 3:&amp;nbsp;Bedrock Data Automation (BDA) Workflow&lt;/u&gt;" style="sketch=0;outlineConnect=0;gradientColor=none;html=1;whiteSpace=wrap;fontSize=12;fontStyle=0;shape=mxgraph.aws4.group;grIcon=mxgraph.aws4.group_aws_step_functions_workflow;strokeColor=#545B64;fillColor=none;verticalAlign=top;align=left;spacingLeft=30;fontColor=#545B64;dashed=0;" parent="4ZSZ7nq5zMxmgsGtWjFn-215" vertex="1">
          <mxGeometry x="470" y="604" width="370" height="220" as="geometry" />
        </mxCell>
        <mxCell id="4ZSZ7nq5zMxmgsGtWjFn-162" value="Pattern 2: Bedrock" style="locked=1;" parent="0" visible="0" />
        <mxCell id="4ZSZ7nq5zMxmgsGtWjFn-202" value="" style="edgeStyle=orthogonalEdgeStyle;rounded=0;orthogonalLoop=1;jettySize=auto;html=1;" parent="4ZSZ7nq5zMxmgsGtWjFn-162" source="4ZSZ7nq5zMxmgsGtWjFn-203" target="4ZSZ7nq5zMxmgsGtWjFn-205" edge="1">
          <mxGeometry relative="1" as="geometry" />
        </mxCell>
        <mxCell id="4ZSZ7nq5zMxmgsGtWjFn-203" value="OCR Fn." style="outlineConnect=0;dashed=0;verticalLabelPosition=bottom;verticalAlign=top;align=center;html=1;shape=mxgraph.aws3.lambda_function;fillColor=#F58534;gradientColor=none;" parent="4ZSZ7nq5zMxmgsGtWjFn-162" vertex="1">
          <mxGeometry x="485" y="685" width="69" height="72" as="geometry" />
        </mxCell>
        <mxCell id="4ZSZ7nq5zMxmgsGtWjFn-204" style="edgeStyle=orthogonalEdgeStyle;rounded=0;orthogonalLoop=1;jettySize=auto;html=1;exitX=1;exitY=0.5;exitDx=0;exitDy=0;exitPerimeter=0;entryX=0;entryY=0.5;entryDx=0;entryDy=0;entryPerimeter=0;" parent="4ZSZ7nq5zMxmgsGtWjFn-162" source="4ZSZ7nq5zMxmgsGtWjFn-205" target="4ZSZ7nq5zMxmgsGtWjFn-208" edge="1">
          <mxGeometry relative="1" as="geometry" />
        </mxCell>
        <mxCell id="4ZSZ7nq5zMxmgsGtWjFn-205" value="Page Classification &amp;amp;&amp;nbsp;&lt;br&gt;Grouping Fn." style="outlineConnect=0;dashed=0;verticalLabelPosition=bottom;verticalAlign=top;align=center;html=1;shape=mxgraph.aws3.lambda_function;fillColor=#F58534;gradientColor=none;" parent="4ZSZ7nq5zMxmgsGtWjFn-162" vertex="1">
          <mxGeometry x="600" y="685" width="69" height="72" as="geometry" />
        </mxCell>
        <mxCell id="4ZSZ7nq5zMxmgsGtWjFn-206" value="Textract" style="sketch=0;points=[[0,0,0],[0.25,0,0],[0.5,0,0],[0.75,0,0],[1,0,0],[0,1,0],[0.25,1,0],[0.5,1,0],[0.75,1,0],[1,1,0],[0,0.25,0],[0,0.5,0],[0,0.75,0],[1,0.25,0],[1,0.5,0],[1,0.75,0]];outlineConnect=0;fontColor=#232F3E;fillColor=#01A88D;strokeColor=#ffffff;dashed=0;verticalLabelPosition=bottom;verticalAlign=top;align=center;html=1;fontSize=12;fontStyle=0;aspect=fixed;shape=mxgraph.aws4.resourceIcon;resIcon=mxgraph.aws4.textract;" parent="4ZSZ7nq5zMxmgsGtWjFn-162" vertex="1">
          <mxGeometry x="545.5" y="638" width="40" height="40" as="geometry" />
        </mxCell>
        <mxCell id="4ZSZ7nq5zMxmgsGtWjFn-207" value="Bedrock" style="shape=image;verticalLabelPosition=bottom;labelBackgroundColor=default;verticalAlign=top;aspect=fixed;imageAspect=0;image=data:image/png,iVBORw0KGgoAAAANSUhEUgAAAE0AAABOCAYAAABlnZseAAAAAXNSR0IArs4c6QAAAARnQU1BAACxjwv8YQUAAAAJcEhZcwAAEnQAABJ0Ad5mH3gAAAfwSURBVHhe7ZwJUFVVGMc/NjcUEzXRUNEBCVRE3AhEEE0WpdzSGre0aXS0aVInrbS0UacscbJyJqfJFMfQtNXEDRGX3HLBfckRBRNNpTRXQOj8j/fi83Uf3Hs49wF2fzN37rnn3Cfz/u8753zfd87RxWVFcglZGMJVuVsYwBJNAEs0ASzRBLBEE8ASTQBLNAEs0QSwRBPAEk0ASzQBnC5afFM/2t9nOJ3p+wrNC42m8IZNyUVpqy44LWD3r/sEJXeMoaRmrZWah+Te/odW5Z6m1ezacy2PqnoGwXTR6rp70LTgcJoYGEY1XN3oRmEBzTq2i3YxcQb5BtDg5m2oeZ16ytvVQ0DTREOXG+4XTB+GRFHT2p78y3+dfZSmHd5Bl+/e5u8AvNeNdVGI94KdgJl/5lLsllXKU9XBFNG6ePvQgrCefLxS6bppOe3Lv6w8aWMr4KTATrzOdeV8fneELxN5bocoimncnD9nXsmlqYe20wVmsWYhVbQmterQnJDuNLpVOy5A3p1b3MpAeV/enuKhk/i9rM9BsKy4EeRdo5ZS84D8grsUumGZacJJmT09XF1pMrOMU4ljaAwTrLD4Ps098RsFpi1W3jAHWBgEW5eXTS3WfMkvlFGHNrOQIlpGzyH0MXMfvDxq0JqLZ6nduqX09uHtdLOoUHnDHNQuOXZfOrcqXONYGahtZiBFtMhGzfg9cdv39Pz2H+nMzb/5s9m4Mwt3hJuLed6fVOd2fd45peQcNl/O4fdFnXvz8Q3XF6wMMtjMaxZSRXM20488cF8SmrainKRX+YUy6tBmFpUmGmZHdYYU5ezN6xSRnkrLzh1XaoiXUYc2s6jWlgayb12nUXvWK0/Ey6gzk2ovWmVgumhwTo06tlUdy9IEsEQToMKxZ99mrWlNVH9eTmKO7VoWEZQHgvJdvV/iZUddV3RmdcZQIGxpwV4NaX30oFLBAMqoQ5sWNV3d6EMWE+7o9SJ/Rk5NJnp+MBkYtrSGLBie2S6Cxvl34KHKXwV3adax3bzt3bbh1IC1F5UU06Izh2nm0Z10jbUDWNfirnEU5OVN90tKKPnUPppxZCfdY8G9FnqyHJWFbtGQyRjvH0rvlSGMKuhY/xByd3EtFdSntidNDuzMRT5xI59GM19qb/4l/hlHPBaibWddSg3MN146T5MOZtLxG9f4sz3onvM7xlAfn5ZKDXHrmndyHxfZkXXZYoZorevWp9ntu1OvJi2oqLhYOGGpWzT1S+gd7IHtJBG+6ZtyrcsW2aK18qxPO9nkg0SpLSIJS8MTgb1gEOazsFjl6VFs3zUimBm83z6CCyYjYWnY0tRf3r4LPpu5ujRVY4uoxaifkw3EUq0KqSRkRpCWf+rnRbxOD4YtDYM9LOtQ/EguGAZ7jG/brlxQ3nj8MWxpEMnR7GlPbzbgbowZzMt9mCWma1iiI2SPaSnhCTS8ZRDvkkiPAyQvkX9LzTlJw3al8To9GBYNlDd7wuyTQ6P5OqYtWASenLVV16ArW7RKnQgwe8Zv/U5TMPhyU4O60ImEl7lgt4oK+QILLpRRhza8g3edCXJskZtTaUXOKbpy7w4fx2BhIkt9whOBFnE+frQueiAv21uVvfVBeFisI2Rbmkyk/twbLp2jBacP8PFr6M5fHvkFUUYd2vBOWYJVdaRamkxsx1CjYMLpz4aR2/eLlBq5OHdgcRKYtRcqS3lmYNjSjOTMBvj601sstjOKrati1LLhdO/tM4zquLnTmL0baEn2MaVFHrot7derF/ndSM5sytNdNDfxOQKTxcqIfqWCiYBZ/bX9m3n58069aFVkEl0bMJ7+eG4sLX8mkf+NiqLb0uAiTPAPlZozU8G/ja1V04PDydPdg7snuAPRMVR1Zu2RsaNIt6UVFhfTJ2zWa7N2MS38PYvXTQgIpdN9x9AbbcJKrQuCIWcWmZ7Ku2Z5gqErHoobSR+ERHGh4KoErVuitIqDXZfAjB1Fui3NnormzOz9tpNM6NcPZJSGWhWdra+yLgmBZATo9giLpmI0Z6bVFWcf303zT+3n1qyi1+VIY9bTb9sPytNDMIZhQ6GtaNiael6CaBV2OYzkzBx1RWwAtBXMCIks4NYCWVmgtaNIbROlwpYGyutK5XVFLfR0z7Lewd80a2upqc6towC+w4YUQ2kiESAKxEFQju5YkQDdHlNFi32yhdSuaBSIgzwZxi9cKFdUMGCqaGUF8NUZU0UDEw9mSu+KSCgu7RavPBEvo85ZmC6abLB2iQzsCL9gpYZ4GXVocwaVKlp0Y19+Es8Ic9p311yKQx0Wgp2BVNFwLFEPWNH6isWoGbFDuKOLxQ29xDJfD2idHcDKuTOQIpqaAUnrMZB+YtEBjik6YiTrSicSR9PoVm2pgIVaM1jIpbVe6ghsJ3BEWW0ykSJa7JZv6c2srfxYIlJBRxNGcVcDxxZVAuo1oPSYwbSEDdqNatamDCZUyPoUvkEG4unFTE9fL1IiAhWMK/YHyuDMtvT0oneCu/FcG1aCIHCKzTZ2LRx5+2Z6+nqRKppKZ+8m9GlY7CNHF/FHcN5zStY2/gW10Ht0EcI5+7iiLaaIBiCAdUhWkLKOYw/0DfiPUDiOjaPYCLv+d8ex7cGMiqRlP401g+oglC1OE00FvtxHHXqQl0dNLlR1+R8SbHG6aI8D1S72rApYoglgiSaAJZoAlmgCWKIJYIkmgCWaAJZohiH6F+Y3aO0aEfmSAAAAAElFTkSuQmCC;" parent="4ZSZ7nq5zMxmgsGtWjFn-162" vertex="1">
          <mxGeometry x="665" y="638" width="40" height="40.52" as="geometry" />
        </mxCell>
        <mxCell id="4ZSZ7nq5zMxmgsGtWjFn-208" value="" style="outlineConnect=0;dashed=0;verticalLabelPosition=bottom;verticalAlign=top;align=center;html=1;shape=mxgraph.aws3.lambda_function;fillColor=#F58534;gradientColor=none;" parent="4ZSZ7nq5zMxmgsGtWjFn-162" vertex="1">
          <mxGeometry x="715.5" y="685" width="69" height="72" as="geometry" />
        </mxCell>
        <mxCell id="4ZSZ7nq5zMxmgsGtWjFn-209" value="" style="outlineConnect=0;dashed=0;verticalLabelPosition=bottom;verticalAlign=top;align=center;html=1;shape=mxgraph.aws3.lambda_function;fillColor=#F58534;gradientColor=none;" parent="4ZSZ7nq5zMxmgsGtWjFn-162" vertex="1">
          <mxGeometry x="725.5" y="695" width="69" height="72" as="geometry" />
        </mxCell>
        <mxCell id="4ZSZ7nq5zMxmgsGtWjFn-210" value="Page Group &lt;br&gt;Extraction Fn." style="outlineConnect=0;dashed=0;verticalLabelPosition=bottom;verticalAlign=top;align=center;html=1;shape=mxgraph.aws3.lambda_function;fillColor=#F58534;gradientColor=none;" parent="4ZSZ7nq5zMxmgsGtWjFn-162" vertex="1">
          <mxGeometry x="735.5" y="705" width="69" height="72" as="geometry" />
        </mxCell>
        <mxCell id="4ZSZ7nq5zMxmgsGtWjFn-211" value="Bedrock" style="shape=image;verticalLabelPosition=bottom;labelBackgroundColor=default;verticalAlign=top;aspect=fixed;imageAspect=0;image=data:image/png,iVBORw0KGgoAAAANSUhEUgAAAE0AAABOCAYAAABlnZseAAAAAXNSR0IArs4c6QAAAARnQU1BAACxjwv8YQUAAAAJcEhZcwAAEnQAABJ0Ad5mH3gAAAfwSURBVHhe7ZwJUFVVGMc/NjcUEzXRUNEBCVRE3AhEEE0WpdzSGre0aXS0aVInrbS0UacscbJyJqfJFMfQtNXEDRGX3HLBfckRBRNNpTRXQOj8j/fi83Uf3Hs49wF2fzN37rnn3Cfz/u8753zfd87RxWVFcglZGMJVuVsYwBJNAEs0ASzRBLBEE8ASTQBLNAEs0QSwRBPAEk0ASzQBnC5afFM/2t9nOJ3p+wrNC42m8IZNyUVpqy44LWD3r/sEJXeMoaRmrZWah+Te/odW5Z6m1ezacy2PqnoGwXTR6rp70LTgcJoYGEY1XN3oRmEBzTq2i3YxcQb5BtDg5m2oeZ16ytvVQ0DTREOXG+4XTB+GRFHT2p78y3+dfZSmHd5Bl+/e5u8AvNeNdVGI94KdgJl/5lLsllXKU9XBFNG6ePvQgrCefLxS6bppOe3Lv6w8aWMr4KTATrzOdeV8fneELxN5bocoimncnD9nXsmlqYe20wVmsWYhVbQmterQnJDuNLpVOy5A3p1b3MpAeV/enuKhk/i9rM9BsKy4EeRdo5ZS84D8grsUumGZacJJmT09XF1pMrOMU4ljaAwTrLD4Ps098RsFpi1W3jAHWBgEW5eXTS3WfMkvlFGHNrOQIlpGzyH0MXMfvDxq0JqLZ6nduqX09uHtdLOoUHnDHNQuOXZfOrcqXONYGahtZiBFtMhGzfg9cdv39Pz2H+nMzb/5s9m4Mwt3hJuLed6fVOd2fd45peQcNl/O4fdFnXvz8Q3XF6wMMtjMaxZSRXM20488cF8SmrainKRX+YUy6tBmFpUmGmZHdYYU5ezN6xSRnkrLzh1XaoiXUYc2s6jWlgayb12nUXvWK0/Ey6gzk2ovWmVgumhwTo06tlUdy9IEsEQToMKxZ99mrWlNVH9eTmKO7VoWEZQHgvJdvV/iZUddV3RmdcZQIGxpwV4NaX30oFLBAMqoQ5sWNV3d6EMWE+7o9SJ/Rk5NJnp+MBkYtrSGLBie2S6Cxvl34KHKXwV3adax3bzt3bbh1IC1F5UU06Izh2nm0Z10jbUDWNfirnEU5OVN90tKKPnUPppxZCfdY8G9FnqyHJWFbtGQyRjvH0rvlSGMKuhY/xByd3EtFdSntidNDuzMRT5xI59GM19qb/4l/hlHPBaibWddSg3MN146T5MOZtLxG9f4sz3onvM7xlAfn5ZKDXHrmndyHxfZkXXZYoZorevWp9ntu1OvJi2oqLhYOGGpWzT1S+gd7IHtJBG+6ZtyrcsW2aK18qxPO9nkg0SpLSIJS8MTgb1gEOazsFjl6VFs3zUimBm83z6CCyYjYWnY0tRf3r4LPpu5ujRVY4uoxaifkw3EUq0KqSRkRpCWf+rnRbxOD4YtDYM9LOtQ/EguGAZ7jG/brlxQ3nj8MWxpEMnR7GlPbzbgbowZzMt9mCWma1iiI2SPaSnhCTS8ZRDvkkiPAyQvkX9LzTlJw3al8To9GBYNlDd7wuyTQ6P5OqYtWASenLVV16ArW7RKnQgwe8Zv/U5TMPhyU4O60ImEl7lgt4oK+QILLpRRhza8g3edCXJskZtTaUXOKbpy7w4fx2BhIkt9whOBFnE+frQueiAv21uVvfVBeFisI2Rbmkyk/twbLp2jBacP8PFr6M5fHvkFUUYd2vBOWYJVdaRamkxsx1CjYMLpz4aR2/eLlBq5OHdgcRKYtRcqS3lmYNjSjOTMBvj601sstjOKrati1LLhdO/tM4zquLnTmL0baEn2MaVFHrot7derF/ndSM5sytNdNDfxOQKTxcqIfqWCiYBZ/bX9m3n58069aFVkEl0bMJ7+eG4sLX8mkf+NiqLb0uAiTPAPlZozU8G/ja1V04PDydPdg7snuAPRMVR1Zu2RsaNIt6UVFhfTJ2zWa7N2MS38PYvXTQgIpdN9x9AbbcJKrQuCIWcWmZ7Ku2Z5gqErHoobSR+ERHGh4KoErVuitIqDXZfAjB1Fui3NnormzOz9tpNM6NcPZJSGWhWdra+yLgmBZATo9giLpmI0Z6bVFWcf303zT+3n1qyi1+VIY9bTb9sPytNDMIZhQ6GtaNiael6CaBV2OYzkzBx1RWwAtBXMCIks4NYCWVmgtaNIbROlwpYGyutK5XVFLfR0z7Lewd80a2upqc6towC+w4YUQ2kiESAKxEFQju5YkQDdHlNFi32yhdSuaBSIgzwZxi9cKFdUMGCqaGUF8NUZU0UDEw9mSu+KSCgu7RavPBEvo85ZmC6abLB2iQzsCL9gpYZ4GXVocwaVKlp0Y19+Es8Ic9p311yKQx0Wgp2BVNFwLFEPWNH6isWoGbFDuKOLxQ29xDJfD2idHcDKuTOQIpqaAUnrMZB+YtEBjik6YiTrSicSR9PoVm2pgIVaM1jIpbVe6ghsJ3BEWW0ykSJa7JZv6c2srfxYIlJBRxNGcVcDxxZVAuo1oPSYwbSEDdqNatamDCZUyPoUvkEG4unFTE9fL1IiAhWMK/YHyuDMtvT0oneCu/FcG1aCIHCKzTZ2LRx5+2Z6+nqRKppKZ+8m9GlY7CNHF/FHcN5zStY2/gW10Ht0EcI5+7iiLaaIBiCAdUhWkLKOYw/0DfiPUDiOjaPYCLv+d8ex7cGMiqRlP401g+oglC1OE00FvtxHHXqQl0dNLlR1+R8SbHG6aI8D1S72rApYoglgiSaAJZoAlmgCWKIJYIkmgCWaAJZohiH6F+Y3aO0aEfmSAAAAAElFTkSuQmCC;" parent="4ZSZ7nq5zMxmgsGtWjFn-162" vertex="1">
          <mxGeometry x="782" y="638" width="40" height="40.52" as="geometry" />
        </mxCell>
        <mxCell id="4ZSZ7nq5zMxmgsGtWjFn-212" style="edgeStyle=orthogonalEdgeStyle;rounded=0;orthogonalLoop=1;jettySize=auto;html=1;exitX=1;exitY=0.5;exitDx=0;exitDy=0;exitPerimeter=0;entryX=0;entryY=0.5;entryDx=0;entryDy=0;entryPerimeter=0;" parent="4ZSZ7nq5zMxmgsGtWjFn-162" source="4ZSZ7nq5zMxmgsGtWjFn-205" target="4ZSZ7nq5zMxmgsGtWjFn-210" edge="1">
          <mxGeometry relative="1" as="geometry" />
        </mxCell>
        <mxCell id="4ZSZ7nq5zMxmgsGtWjFn-213" style="edgeStyle=orthogonalEdgeStyle;rounded=0;orthogonalLoop=1;jettySize=auto;html=1;exitX=1;exitY=0.5;exitDx=0;exitDy=0;exitPerimeter=0;entryX=0;entryY=0.5;entryDx=0;entryDy=0;entryPerimeter=0;" parent="4ZSZ7nq5zMxmgsGtWjFn-162" source="4ZSZ7nq5zMxmgsGtWjFn-205" target="4ZSZ7nq5zMxmgsGtWjFn-209" edge="1">
          <mxGeometry relative="1" as="geometry" />
        </mxCell>
        <mxCell id="4ZSZ7nq5zMxmgsGtWjFn-214" value="&lt;u style=&quot;border-color: var(--border-color); color: rgb(0, 0, 0); text-align: center; background-color: rgb(255, 255, 255);&quot;&gt;Pattern 2: Bedrock Classification and Extraction&lt;/u&gt;" style="sketch=0;outlineConnect=0;gradientColor=none;html=1;whiteSpace=wrap;fontSize=12;fontStyle=0;shape=mxgraph.aws4.group;grIcon=mxgraph.aws4.group_aws_step_functions_workflow;strokeColor=#545B64;fillColor=none;verticalAlign=top;align=left;spacingLeft=30;fontColor=#545B64;dashed=0;" parent="4ZSZ7nq5zMxmgsGtWjFn-162" vertex="1">
          <mxGeometry x="470" y="604" width="370" height="220" as="geometry" />
        </mxCell>
        <mxCell id="4ZSZ7nq5zMxmgsGtWjFn-148" value="Pattern 1: UDOP" style="locked=1;" parent="0" visible="0" />
        <mxCell id="4ZSZ7nq5zMxmgsGtWjFn-149" value="&lt;span style=&quot;border-color: var(--border-color); color: rgb(0, 0, 0); text-align: center; background-color: rgb(255, 255, 255);&quot;&gt;&lt;font style=&quot;font-size: 12px;&quot;&gt;&lt;u&gt;Pattern 1: UDOP Classification with Claude Extraction&lt;/u&gt;&lt;/font&gt;&lt;/span&gt;" style="sketch=0;outlineConnect=0;gradientColor=none;html=1;whiteSpace=wrap;fontSize=12;fontStyle=0;shape=mxgraph.aws4.group;grIcon=mxgraph.aws4.group_aws_step_functions_workflow;strokeColor=#545B64;fillColor=none;verticalAlign=top;align=left;spacingLeft=30;fontColor=#545B64;dashed=0;" parent="4ZSZ7nq5zMxmgsGtWjFn-148" vertex="1">
          <mxGeometry x="470" y="604" width="370" height="220" as="geometry" />
        </mxCell>
        <mxCell id="4ZSZ7nq5zMxmgsGtWjFn-150" value="" style="edgeStyle=orthogonalEdgeStyle;rounded=0;orthogonalLoop=1;jettySize=auto;html=1;" parent="4ZSZ7nq5zMxmgsGtWjFn-148" source="4ZSZ7nq5zMxmgsGtWjFn-151" target="4ZSZ7nq5zMxmgsGtWjFn-153" edge="1">
          <mxGeometry relative="1" as="geometry" />
        </mxCell>
        <mxCell id="4ZSZ7nq5zMxmgsGtWjFn-151" value="OCR Fn." style="outlineConnect=0;dashed=0;verticalLabelPosition=bottom;verticalAlign=top;align=center;html=1;shape=mxgraph.aws3.lambda_function;fillColor=#F58534;gradientColor=none;" parent="4ZSZ7nq5zMxmgsGtWjFn-148" vertex="1">
          <mxGeometry x="490" y="689" width="69" height="72" as="geometry" />
        </mxCell>
        <mxCell id="4ZSZ7nq5zMxmgsGtWjFn-152" style="edgeStyle=orthogonalEdgeStyle;rounded=0;orthogonalLoop=1;jettySize=auto;html=1;exitX=1;exitY=0.5;exitDx=0;exitDy=0;exitPerimeter=0;entryX=0;entryY=0.5;entryDx=0;entryDy=0;entryPerimeter=0;" parent="4ZSZ7nq5zMxmgsGtWjFn-148" source="4ZSZ7nq5zMxmgsGtWjFn-153" target="4ZSZ7nq5zMxmgsGtWjFn-155" edge="1">
          <mxGeometry relative="1" as="geometry" />
        </mxCell>
        <mxCell id="4ZSZ7nq5zMxmgsGtWjFn-153" value="Page Classification &amp;amp;&amp;nbsp;&lt;br&gt;Grouping Fn." style="outlineConnect=0;dashed=0;verticalLabelPosition=bottom;verticalAlign=top;align=center;html=1;shape=mxgraph.aws3.lambda_function;fillColor=#F58534;gradientColor=none;" parent="4ZSZ7nq5zMxmgsGtWjFn-148" vertex="1">
          <mxGeometry x="605" y="689" width="69" height="72" as="geometry" />
        </mxCell>
        <mxCell id="4ZSZ7nq5zMxmgsGtWjFn-154" value="Textract" style="sketch=0;points=[[0,0,0],[0.25,0,0],[0.5,0,0],[0.75,0,0],[1,0,0],[0,1,0],[0.25,1,0],[0.5,1,0],[0.75,1,0],[1,1,0],[0,0.25,0],[0,0.5,0],[0,0.75,0],[1,0.25,0],[1,0.5,0],[1,0.75,0]];outlineConnect=0;fontColor=#232F3E;fillColor=#01A88D;strokeColor=#ffffff;dashed=0;verticalLabelPosition=bottom;verticalAlign=top;align=center;html=1;fontSize=12;fontStyle=0;aspect=fixed;shape=mxgraph.aws4.resourceIcon;resIcon=mxgraph.aws4.textract;" parent="4ZSZ7nq5zMxmgsGtWjFn-148" vertex="1">
          <mxGeometry x="550.5" y="638" width="40" height="40" as="geometry" />
        </mxCell>
        <mxCell id="4ZSZ7nq5zMxmgsGtWjFn-155" value="" style="outlineConnect=0;dashed=0;verticalLabelPosition=bottom;verticalAlign=top;align=center;html=1;shape=mxgraph.aws3.lambda_function;fillColor=#F58534;gradientColor=none;" parent="4ZSZ7nq5zMxmgsGtWjFn-148" vertex="1">
          <mxGeometry x="720.5" y="689" width="69" height="72" as="geometry" />
        </mxCell>
        <mxCell id="4ZSZ7nq5zMxmgsGtWjFn-156" value="" style="outlineConnect=0;dashed=0;verticalLabelPosition=bottom;verticalAlign=top;align=center;html=1;shape=mxgraph.aws3.lambda_function;fillColor=#F58534;gradientColor=none;" parent="4ZSZ7nq5zMxmgsGtWjFn-148" vertex="1">
          <mxGeometry x="730.5" y="699" width="69" height="72" as="geometry" />
        </mxCell>
        <mxCell id="4ZSZ7nq5zMxmgsGtWjFn-157" value="Page Group &lt;br&gt;Extraction Fn." style="outlineConnect=0;dashed=0;verticalLabelPosition=bottom;verticalAlign=top;align=center;html=1;shape=mxgraph.aws3.lambda_function;fillColor=#F58534;gradientColor=none;" parent="4ZSZ7nq5zMxmgsGtWjFn-148" vertex="1">
          <mxGeometry x="740.5" y="709" width="69" height="72" as="geometry" />
        </mxCell>
        <mxCell id="4ZSZ7nq5zMxmgsGtWjFn-158" value="Bedrock" style="shape=image;verticalLabelPosition=bottom;labelBackgroundColor=default;verticalAlign=top;aspect=fixed;imageAspect=0;image=data:image/png,iVBORw0KGgoAAAANSUhEUgAAAE0AAABOCAYAAABlnZseAAAAAXNSR0IArs4c6QAAAARnQU1BAACxjwv8YQUAAAAJcEhZcwAAEnQAABJ0Ad5mH3gAAAfwSURBVHhe7ZwJUFVVGMc/NjcUEzXRUNEBCVRE3AhEEE0WpdzSGre0aXS0aVInrbS0UacscbJyJqfJFMfQtNXEDRGX3HLBfckRBRNNpTRXQOj8j/fi83Uf3Hs49wF2fzN37rnn3Cfz/u8753zfd87RxWVFcglZGMJVuVsYwBJNAEs0ASzRBLBEE8ASTQBLNAEs0QSwRBPAEk0ASzQBnC5afFM/2t9nOJ3p+wrNC42m8IZNyUVpqy44LWD3r/sEJXeMoaRmrZWah+Te/odW5Z6m1ezacy2PqnoGwXTR6rp70LTgcJoYGEY1XN3oRmEBzTq2i3YxcQb5BtDg5m2oeZ16ytvVQ0DTREOXG+4XTB+GRFHT2p78y3+dfZSmHd5Bl+/e5u8AvNeNdVGI94KdgJl/5lLsllXKU9XBFNG6ePvQgrCefLxS6bppOe3Lv6w8aWMr4KTATrzOdeV8fneELxN5bocoimncnD9nXsmlqYe20wVmsWYhVbQmterQnJDuNLpVOy5A3p1b3MpAeV/enuKhk/i9rM9BsKy4EeRdo5ZS84D8grsUumGZacJJmT09XF1pMrOMU4ljaAwTrLD4Ps098RsFpi1W3jAHWBgEW5eXTS3WfMkvlFGHNrOQIlpGzyH0MXMfvDxq0JqLZ6nduqX09uHtdLOoUHnDHNQuOXZfOrcqXONYGahtZiBFtMhGzfg9cdv39Pz2H+nMzb/5s9m4Mwt3hJuLed6fVOd2fd45peQcNl/O4fdFnXvz8Q3XF6wMMtjMaxZSRXM20488cF8SmrainKRX+YUy6tBmFpUmGmZHdYYU5ezN6xSRnkrLzh1XaoiXUYc2s6jWlgayb12nUXvWK0/Ey6gzk2ovWmVgumhwTo06tlUdy9IEsEQToMKxZ99mrWlNVH9eTmKO7VoWEZQHgvJdvV/iZUddV3RmdcZQIGxpwV4NaX30oFLBAMqoQ5sWNV3d6EMWE+7o9SJ/Rk5NJnp+MBkYtrSGLBie2S6Cxvl34KHKXwV3adax3bzt3bbh1IC1F5UU06Izh2nm0Z10jbUDWNfirnEU5OVN90tKKPnUPppxZCfdY8G9FnqyHJWFbtGQyRjvH0rvlSGMKuhY/xByd3EtFdSntidNDuzMRT5xI59GM19qb/4l/hlHPBaibWddSg3MN146T5MOZtLxG9f4sz3onvM7xlAfn5ZKDXHrmndyHxfZkXXZYoZorevWp9ntu1OvJi2oqLhYOGGpWzT1S+gd7IHtJBG+6ZtyrcsW2aK18qxPO9nkg0SpLSIJS8MTgb1gEOazsFjl6VFs3zUimBm83z6CCyYjYWnY0tRf3r4LPpu5ujRVY4uoxaifkw3EUq0KqSRkRpCWf+rnRbxOD4YtDYM9LOtQ/EguGAZ7jG/brlxQ3nj8MWxpEMnR7GlPbzbgbowZzMt9mCWma1iiI2SPaSnhCTS8ZRDvkkiPAyQvkX9LzTlJw3al8To9GBYNlDd7wuyTQ6P5OqYtWASenLVV16ArW7RKnQgwe8Zv/U5TMPhyU4O60ImEl7lgt4oK+QILLpRRhza8g3edCXJskZtTaUXOKbpy7w4fx2BhIkt9whOBFnE+frQueiAv21uVvfVBeFisI2Rbmkyk/twbLp2jBacP8PFr6M5fHvkFUUYd2vBOWYJVdaRamkxsx1CjYMLpz4aR2/eLlBq5OHdgcRKYtRcqS3lmYNjSjOTMBvj601sstjOKrati1LLhdO/tM4zquLnTmL0baEn2MaVFHrot7derF/ndSM5sytNdNDfxOQKTxcqIfqWCiYBZ/bX9m3n58069aFVkEl0bMJ7+eG4sLX8mkf+NiqLb0uAiTPAPlZozU8G/ja1V04PDydPdg7snuAPRMVR1Zu2RsaNIt6UVFhfTJ2zWa7N2MS38PYvXTQgIpdN9x9AbbcJKrQuCIWcWmZ7Ku2Z5gqErHoobSR+ERHGh4KoErVuitIqDXZfAjB1Fui3NnormzOz9tpNM6NcPZJSGWhWdra+yLgmBZATo9giLpmI0Z6bVFWcf303zT+3n1qyi1+VIY9bTb9sPytNDMIZhQ6GtaNiael6CaBV2OYzkzBx1RWwAtBXMCIks4NYCWVmgtaNIbROlwpYGyutK5XVFLfR0z7Lewd80a2upqc6towC+w4YUQ2kiESAKxEFQju5YkQDdHlNFi32yhdSuaBSIgzwZxi9cKFdUMGCqaGUF8NUZU0UDEw9mSu+KSCgu7RavPBEvo85ZmC6abLB2iQzsCL9gpYZ4GXVocwaVKlp0Y19+Es8Ic9p311yKQx0Wgp2BVNFwLFEPWNH6isWoGbFDuKOLxQ29xDJfD2idHcDKuTOQIpqaAUnrMZB+YtEBjik6YiTrSicSR9PoVm2pgIVaM1jIpbVe6ghsJ3BEWW0ykSJa7JZv6c2srfxYIlJBRxNGcVcDxxZVAuo1oPSYwbSEDdqNatamDCZUyPoUvkEG4unFTE9fL1IiAhWMK/YHyuDMtvT0oneCu/FcG1aCIHCKzTZ2LRx5+2Z6+nqRKppKZ+8m9GlY7CNHF/FHcN5zStY2/gW10Ht0EcI5+7iiLaaIBiCAdUhWkLKOYw/0DfiPUDiOjaPYCLv+d8ex7cGMiqRlP401g+oglC1OE00FvtxHHXqQl0dNLlR1+R8SbHG6aI8D1S72rApYoglgiSaAJZoAlmgCWKIJYIkmgCWaAJZohiH6F+Y3aO0aEfmSAAAAAElFTkSuQmCC;" parent="4ZSZ7nq5zMxmgsGtWjFn-148" vertex="1">
          <mxGeometry x="787" y="638" width="40" height="40.52" as="geometry" />
        </mxCell>
        <mxCell id="4ZSZ7nq5zMxmgsGtWjFn-159" style="edgeStyle=orthogonalEdgeStyle;rounded=0;orthogonalLoop=1;jettySize=auto;html=1;exitX=1;exitY=0.5;exitDx=0;exitDy=0;exitPerimeter=0;entryX=0;entryY=0.5;entryDx=0;entryDy=0;entryPerimeter=0;" parent="4ZSZ7nq5zMxmgsGtWjFn-148" source="4ZSZ7nq5zMxmgsGtWjFn-153" target="4ZSZ7nq5zMxmgsGtWjFn-157" edge="1">
          <mxGeometry relative="1" as="geometry" />
        </mxCell>
        <mxCell id="4ZSZ7nq5zMxmgsGtWjFn-160" style="edgeStyle=orthogonalEdgeStyle;rounded=0;orthogonalLoop=1;jettySize=auto;html=1;exitX=1;exitY=0.5;exitDx=0;exitDy=0;exitPerimeter=0;entryX=0;entryY=0.5;entryDx=0;entryDy=0;entryPerimeter=0;" parent="4ZSZ7nq5zMxmgsGtWjFn-148" source="4ZSZ7nq5zMxmgsGtWjFn-153" target="4ZSZ7nq5zMxmgsGtWjFn-156" edge="1">
          <mxGeometry relative="1" as="geometry" />
        </mxCell>
        <mxCell id="4ZSZ7nq5zMxmgsGtWjFn-161" value="SageMaker" style="sketch=0;points=[[0,0,0],[0.25,0,0],[0.5,0,0],[0.75,0,0],[1,0,0],[0,1,0],[0.25,1,0],[0.5,1,0],[0.75,1,0],[1,1,0],[0,0.25,0],[0,0.5,0],[0,0.75,0],[1,0.25,0],[1,0.5,0],[1,0.75,0]];outlineConnect=0;fontColor=#232F3E;fillColor=#01A88D;strokeColor=#ffffff;dashed=0;verticalLabelPosition=bottom;verticalAlign=top;align=center;html=1;fontSize=12;fontStyle=0;aspect=fixed;shape=mxgraph.aws4.resourceIcon;resIcon=mxgraph.aws4.sagemaker;" parent="4ZSZ7nq5zMxmgsGtWjFn-148" vertex="1">
          <mxGeometry x="670" y="639" width="38" height="38" as="geometry" />
        </mxCell>
        <mxCell id="1" style="" parent="0" />
        <mxCell id="xFXEDuVV4IJmxfkYLhTL-11" value="" style="rounded=0;whiteSpace=wrap;html=1;" parent="1" vertex="1">
          <mxGeometry x="678" y="202" width="241" height="258" as="geometry" />
        </mxCell>
        <mxCell id="vtWkSjNYZ8vGSXr8Y3BF-10" value="" style="edgeStyle=orthogonalEdgeStyle;rounded=0;orthogonalLoop=1;jettySize=auto;html=1;" parent="1" source="vtWkSjNYZ8vGSXr8Y3BF-1" target="vtWkSjNYZ8vGSXr8Y3BF-3" edge="1">
          <mxGeometry relative="1" as="geometry" />
        </mxCell>
        <mxCell id="vtWkSjNYZ8vGSXr8Y3BF-1" value="Input Bucket&lt;br&gt;(PDFs)" style="sketch=0;points=[[0,0,0],[0.25,0,0],[0.5,0,0],[0.75,0,0],[1,0,0],[0,1,0],[0.25,1,0],[0.5,1,0],[0.75,1,0],[1,1,0],[0,0.25,0],[0,0.5,0],[0,0.75,0],[1,0.25,0],[1,0.5,0],[1,0.75,0]];outlineConnect=0;fontColor=#232F3E;fillColor=#7AA116;strokeColor=#ffffff;dashed=0;verticalLabelPosition=bottom;verticalAlign=top;align=center;html=1;fontSize=12;fontStyle=0;aspect=fixed;shape=mxgraph.aws4.resourceIcon;resIcon=mxgraph.aws4.s3;" parent="1" vertex="1">
          <mxGeometry x="10" y="640.5" width="78" height="78" as="geometry" />
        </mxCell>
        <mxCell id="vtWkSjNYZ8vGSXr8Y3BF-2" value="Output Bucket&lt;br&gt;(JSONs)" style="sketch=0;points=[[0,0,0],[0.25,0,0],[0.5,0,0],[0.75,0,0],[1,0,0],[0,1,0],[0.25,1,0],[0.5,1,0],[0.75,1,0],[1,1,0],[0,0.25,0],[0,0.5,0],[0,0.75,0],[1,0.25,0],[1,0.5,0],[1,0.75,0]];outlineConnect=0;fontColor=#232F3E;fillColor=#7AA116;strokeColor=#ffffff;dashed=0;verticalLabelPosition=bottom;verticalAlign=top;align=center;html=1;fontSize=12;fontStyle=0;aspect=fixed;shape=mxgraph.aws4.resourceIcon;resIcon=mxgraph.aws4.s3;" parent="1" vertex="1">
          <mxGeometry x="885.5" y="640.5" width="78" height="78" as="geometry" />
        </mxCell>
        <mxCell id="vtWkSjNYZ8vGSXr8Y3BF-11" value="" style="edgeStyle=orthogonalEdgeStyle;rounded=0;orthogonalLoop=1;jettySize=auto;html=1;" parent="1" source="vtWkSjNYZ8vGSXr8Y3BF-3" target="vtWkSjNYZ8vGSXr8Y3BF-5" edge="1">
          <mxGeometry relative="1" as="geometry" />
        </mxCell>
        <mxCell id="vtWkSjNYZ8vGSXr8Y3BF-30" style="edgeStyle=orthogonalEdgeStyle;rounded=0;orthogonalLoop=1;jettySize=auto;html=1;exitX=0.5;exitY=0;exitDx=0;exitDy=0;exitPerimeter=0;entryX=0;entryY=0.5;entryDx=0;entryDy=0;entryPerimeter=0;" parent="1" source="vtWkSjNYZ8vGSXr8Y3BF-3" target="vtWkSjNYZ8vGSXr8Y3BF-18" edge="1">
          <mxGeometry relative="1" as="geometry" />
        </mxCell>
        <mxCell id="vtWkSjNYZ8vGSXr8Y3BF-3" value="Queue Sender Fn." style="outlineConnect=0;dashed=0;verticalLabelPosition=bottom;verticalAlign=top;align=center;html=1;shape=mxgraph.aws3.lambda_function;fillColor=#F58534;gradientColor=none;" parent="1" vertex="1">
          <mxGeometry x="130" y="643.5" width="69" height="72" as="geometry" />
        </mxCell>
        <mxCell id="vtWkSjNYZ8vGSXr8Y3BF-32" style="edgeStyle=orthogonalEdgeStyle;rounded=0;orthogonalLoop=1;jettySize=auto;html=1;exitX=0.5;exitY=0;exitDx=0;exitDy=0;exitPerimeter=0;entryX=0;entryY=0.5;entryDx=0;entryDy=0;entryPerimeter=0;" parent="1" source="vtWkSjNYZ8vGSXr8Y3BF-4" target="vtWkSjNYZ8vGSXr8Y3BF-20" edge="1">
          <mxGeometry relative="1" as="geometry" />
        </mxCell>
        <mxCell id="vtWkSjNYZ8vGSXr8Y3BF-34" style="edgeStyle=orthogonalEdgeStyle;rounded=0;orthogonalLoop=1;jettySize=auto;html=1;exitX=0.5;exitY=0;exitDx=0;exitDy=0;exitPerimeter=0;entryX=1;entryY=0.5;entryDx=0;entryDy=0;entryPerimeter=0;" parent="1" source="vtWkSjNYZ8vGSXr8Y3BF-4" target="vtWkSjNYZ8vGSXr8Y3BF-18" edge="1">
          <mxGeometry relative="1" as="geometry" />
        </mxCell>
        <mxCell id="vtWkSjNYZ8vGSXr8Y3BF-4" value="Queue Processor Fn." style="outlineConnect=0;dashed=0;verticalLabelPosition=bottom;verticalAlign=top;align=center;html=1;shape=mxgraph.aws3.lambda_function;fillColor=#F58534;gradientColor=none;" parent="1" vertex="1">
          <mxGeometry x="360" y="643.5" width="69" height="72" as="geometry" />
        </mxCell>
        <mxCell id="vtWkSjNYZ8vGSXr8Y3BF-12" value="" style="edgeStyle=orthogonalEdgeStyle;rounded=0;orthogonalLoop=1;jettySize=auto;html=1;" parent="1" source="vtWkSjNYZ8vGSXr8Y3BF-5" target="vtWkSjNYZ8vGSXr8Y3BF-4" edge="1">
          <mxGeometry relative="1" as="geometry" />
        </mxCell>
        <mxCell id="vtWkSjNYZ8vGSXr8Y3BF-5" value="SQS Queue" style="sketch=0;outlineConnect=0;fontColor=#232F3E;gradientColor=none;fillColor=#E7157B;strokeColor=none;dashed=0;verticalLabelPosition=bottom;verticalAlign=top;align=center;html=1;fontSize=12;fontStyle=0;aspect=fixed;pointerEvents=1;shape=mxgraph.aws4.queue;" parent="1" vertex="1">
          <mxGeometry x="240" y="656" width="78" height="47" as="geometry" />
        </mxCell>
        <mxCell id="vtWkSjNYZ8vGSXr8Y3BF-15" value="" style="edgeStyle=orthogonalEdgeStyle;rounded=0;orthogonalLoop=1;jettySize=auto;html=1;" parent="1" source="vtWkSjNYZ8vGSXr8Y3BF-4" edge="1">
          <mxGeometry relative="1" as="geometry">
            <mxPoint x="470" y="680" as="targetPoint" />
            <Array as="points">
              <mxPoint x="470" y="680" />
            </Array>
          </mxGeometry>
        </mxCell>
        <mxCell id="vtWkSjNYZ8vGSXr8Y3BF-25" value="" style="edgeStyle=orthogonalEdgeStyle;rounded=0;orthogonalLoop=1;jettySize=auto;html=1;entryX=0.5;entryY=0;entryDx=0;entryDy=0;entryPerimeter=0;" parent="1" source="vtWkSjNYZ8vGSXr8Y3BF-21" target="vtWkSjNYZ8vGSXr8Y3BF-18" edge="1">
          <mxGeometry relative="1" as="geometry">
            <mxPoint x="330" y="435" as="targetPoint" />
            <Array as="points">
              <mxPoint x="585" y="455" />
              <mxPoint x="299" y="455" />
            </Array>
          </mxGeometry>
        </mxCell>
        <mxCell id="vtWkSjNYZ8vGSXr8Y3BF-18" value="Tracking Table" style="outlineConnect=0;dashed=0;verticalLabelPosition=bottom;verticalAlign=top;align=center;html=1;shape=mxgraph.aws3.dynamo_db;fillColor=#2E73B8;gradientColor=none;" parent="1" vertex="1">
          <mxGeometry x="270" y="477" width="58" height="60" as="geometry" />
        </mxCell>
        <mxCell id="vtWkSjNYZ8vGSXr8Y3BF-20" value="Concurrency Counter." style="outlineConnect=0;dashed=0;verticalLabelPosition=bottom;verticalAlign=top;align=center;html=1;shape=mxgraph.aws3.dynamo_db;fillColor=#2E73B8;gradientColor=none;" parent="1" vertex="1">
          <mxGeometry x="442" y="482" width="48" height="50" as="geometry" />
        </mxCell>
        <mxCell id="vtWkSjNYZ8vGSXr8Y3BF-33" value="" style="edgeStyle=orthogonalEdgeStyle;rounded=0;orthogonalLoop=1;jettySize=auto;html=1;" parent="1" source="vtWkSjNYZ8vGSXr8Y3BF-21" target="vtWkSjNYZ8vGSXr8Y3BF-20" edge="1">
          <mxGeometry relative="1" as="geometry" />
        </mxCell>
        <mxCell id="vtWkSjNYZ8vGSXr8Y3BF-21" value="Tracker Fn." style="outlineConnect=0;dashed=0;verticalLabelPosition=bottom;verticalAlign=top;align=center;html=1;shape=mxgraph.aws3.lambda_function;fillColor=#F58534;gradientColor=none;" parent="1" vertex="1">
          <mxGeometry x="560.5" y="471" width="69" height="72" as="geometry" />
        </mxCell>
        <mxCell id="vtWkSjNYZ8vGSXr8Y3BF-35" value="-1" style="text;html=1;align=center;verticalAlign=middle;resizable=0;points=[];autosize=1;strokeColor=none;fillColor=none;" parent="1" vertex="1">
          <mxGeometry x="490" y="482" width="30" height="30" as="geometry" />
        </mxCell>
        <mxCell id="vtWkSjNYZ8vGSXr8Y3BF-36" value="+1" style="text;html=1;align=center;verticalAlign=middle;resizable=0;points=[];autosize=1;strokeColor=none;fillColor=none;" parent="1" vertex="1">
          <mxGeometry x="400" y="482" width="40" height="30" as="geometry" />
        </mxCell>
        <mxCell id="vtWkSjNYZ8vGSXr8Y3BF-43" value="CloudWatch&amp;nbsp;Logs,&amp;nbsp;Metrics,&lt;br&gt;Alarms,&amp;nbsp;Dashboard" style="outlineConnect=0;dashed=0;verticalLabelPosition=bottom;verticalAlign=top;align=center;html=1;shape=mxgraph.aws3.cloudwatch;fillColor=#759C3E;gradientColor=none;" parent="1" vertex="1">
          <mxGeometry x="885.5" y="477" width="82.5" height="93" as="geometry" />
        </mxCell>
        <mxCell id="vtWkSjNYZ8vGSXr8Y3BF-44" value="GenAIDP&lt;br&gt;AWS Cloudformation Stack" style="text;html=1;strokeColor=none;fillColor=none;align=center;verticalAlign=middle;whiteSpace=wrap;rounded=0;" parent="1" vertex="1">
          <mxGeometry x="28" y="111" width="60" height="30" as="geometry" />
        </mxCell>
        <mxCell id="N64sLbcHOZiEqs3M-0Ru-7" style="edgeStyle=orthogonalEdgeStyle;rounded=0;orthogonalLoop=1;jettySize=auto;html=1;exitX=0.5;exitY=0;exitDx=0;exitDy=0;exitPerimeter=0;entryX=0;entryY=0.5;entryDx=0;entryDy=0;entryPerimeter=0;" parent="1" source="vtWkSjNYZ8vGSXr8Y3BF-18" target="N64sLbcHOZiEqs3M-0Ru-2" edge="1">
          <mxGeometry relative="1" as="geometry">
            <mxPoint x="300" y="465" as="sourcePoint" />
            <Array as="points">
              <mxPoint x="299" y="126" />
            </Array>
          </mxGeometry>
        </mxCell>
        <mxCell id="N64sLbcHOZiEqs3M-0Ru-2" value="Job Status Lookup Fn." style="outlineConnect=0;dashed=0;verticalLabelPosition=bottom;verticalAlign=top;align=center;html=1;shape=mxgraph.aws3.lambda_function;fillColor=#F58534;gradientColor=none;" parent="1" vertex="1">
          <mxGeometry x="880" y="90" width="69" height="72" as="geometry" />
        </mxCell>
        <mxCell id="N64sLbcHOZiEqs3M-0Ru-10" value="Processing flow" style="html=1;shadow=0;dashed=0;align=center;verticalAlign=middle;shape=mxgraph.arrows2.arrow;dy=0;dx=10;notch=10;fillColor=#ffb570;" parent="1" vertex="1">
          <mxGeometry x="84" y="869" width="842" height="20" as="geometry" />
        </mxCell>
        <mxCell id="N64sLbcHOZiEqs3M-0Ru-11" style="edgeStyle=orthogonalEdgeStyle;rounded=0;orthogonalLoop=1;jettySize=auto;html=1;exitX=0.5;exitY=1;exitDx=0;exitDy=0;" parent="1" source="vtWkSjNYZ8vGSXr8Y3BF-44" target="vtWkSjNYZ8vGSXr8Y3BF-44" edge="1">
          <mxGeometry relative="1" as="geometry" />
        </mxCell>
        <mxCell id="4ZSZ7nq5zMxmgsGtWjFn-47" style="edgeStyle=orthogonalEdgeStyle;rounded=0;orthogonalLoop=1;jettySize=auto;html=1;exitX=0.75;exitY=0;exitDx=0;exitDy=0;entryX=1;entryY=0.5;entryDx=0;entryDy=0;entryPerimeter=0;" parent="1" source="4ZSZ7nq5zMxmgsGtWjFn-40" target="vtWkSjNYZ8vGSXr8Y3BF-21" edge="1">
          <mxGeometry relative="1" as="geometry" />
        </mxCell>
        <mxCell id="4ZSZ7nq5zMxmgsGtWjFn-40" value="&lt;div style=&quot;background-color: rgb(255, 255, 255); line-height: 19px;&quot;&gt;&lt;p style=&quot;&quot;&gt;&lt;font style=&quot;font-size: 12px;&quot;&gt;AWS Step Functions Workflow (pluggable pattern)&lt;/font&gt;&lt;/p&gt;&lt;div style=&quot;font-size: 14px;&quot;&gt;&lt;/div&gt;&lt;/div&gt;" style="text;html=1;strokeColor=none;fillColor=none;align=center;verticalAlign=middle;whiteSpace=wrap;rounded=0;" parent="1" vertex="1">
          <mxGeometry x="469.5" y="575" width="270.5" height="36" as="geometry" />
        </mxCell>
        <mxCell id="LUJPhlXkW8oFGexshG-M-10" style="edgeStyle=orthogonalEdgeStyle;rounded=0;orthogonalLoop=1;jettySize=auto;html=1;exitX=0.5;exitY=0;exitDx=0;exitDy=0;exitPerimeter=0;" parent="1" source="vtWkSjNYZ8vGSXr8Y3BF-18" target="LUJPhlXkW8oFGexshG-M-9" edge="1">
          <mxGeometry relative="1" as="geometry">
            <Array as="points">
              <mxPoint x="299" y="380" />
            </Array>
          </mxGeometry>
        </mxCell>
        <mxCell id="xFXEDuVV4IJmxfkYLhTL-8" style="edgeStyle=orthogonalEdgeStyle;rounded=0;orthogonalLoop=1;jettySize=auto;html=1;exitX=1;exitY=0.5;exitDx=0;exitDy=0;exitPerimeter=0;" parent="1" source="LUJPhlXkW8oFGexshG-M-9" edge="1">
          <mxGeometry relative="1" as="geometry">
            <mxPoint x="819" y="381" as="targetPoint" />
          </mxGeometry>
        </mxCell>
        <mxCell id="LUJPhlXkW8oFGexshG-M-9" value="AWS AppSync &lt;br&gt;API" style="sketch=0;points=[[0,0,0],[0.25,0,0],[0.5,0,0],[0.75,0,0],[1,0,0],[0,1,0],[0.25,1,0],[0.5,1,0],[0.75,1,0],[1,1,0],[0,0.25,0],[0,0.5,0],[0,0.75,0],[1,0.25,0],[1,0.5,0],[1,0.75,0]];outlineConnect=0;fontColor=#232F3E;fillColor=#E7157B;strokeColor=#ffffff;dashed=0;verticalLabelPosition=bottom;verticalAlign=top;align=center;html=1;fontSize=12;fontStyle=0;aspect=fixed;shape=mxgraph.aws4.resourceIcon;resIcon=mxgraph.aws4.appsync;" parent="1" vertex="1">
          <mxGeometry x="699" y="342" width="78" height="78" as="geometry" />
        </mxCell>
        <mxCell id="xFXEDuVV4IJmxfkYLhTL-9" style="edgeStyle=orthogonalEdgeStyle;rounded=0;orthogonalLoop=1;jettySize=auto;html=1;entryX=0.5;entryY=0;entryDx=0;entryDy=0;entryPerimeter=0;" parent="1" target="xFXEDuVV4IJmxfkYLhTL-7" edge="1">
          <mxGeometry relative="1" as="geometry">
            <mxPoint x="859" y="322" as="sourcePoint" />
          </mxGeometry>
        </mxCell>
        <mxCell id="xFXEDuVV4IJmxfkYLhTL-1" value="Amazon Cognito&lt;br&gt;Auth" style="sketch=0;points=[[0,0,0],[0.25,0,0],[0.5,0,0],[0.75,0,0],[1,0,0],[0,1,0],[0.25,1,0],[0.5,1,0],[0.75,1,0],[1,1,0],[0,0.25,0],[0,0.5,0],[0,0.75,0],[1,0.25,0],[1,0.5,0],[1,0.75,0]];outlineConnect=0;fontColor=#232F3E;fillColor=#8C4FFF;strokeColor=#ffffff;dashed=0;verticalLabelPosition=bottom;verticalAlign=top;align=center;html=1;fontSize=12;fontStyle=0;aspect=fixed;shape=mxgraph.aws4.resourceIcon;resIcon=mxgraph.aws4.cloudfront;" parent="1" vertex="1">
          <mxGeometry x="819.5" y="210" width="78" height="78" as="geometry" />
        </mxCell>
        <mxCell id="xFXEDuVV4IJmxfkYLhTL-4" value="Web App Bucket&lt;br&gt;" style="sketch=0;points=[[0,0,0],[0.25,0,0],[0.5,0,0],[0.75,0,0],[1,0,0],[0,1,0],[0.25,1,0],[0.5,1,0],[0.75,1,0],[1,1,0],[0,0.25,0],[0,0.5,0],[0,0.75,0],[1,0.25,0],[1,0.5,0],[1,0.75,0]];outlineConnect=0;fontColor=#232F3E;fillColor=#7AA116;strokeColor=#ffffff;dashed=0;verticalLabelPosition=bottom;verticalAlign=top;align=center;html=1;fontSize=12;fontStyle=0;aspect=fixed;shape=mxgraph.aws4.resourceIcon;resIcon=mxgraph.aws4.s3;" parent="1" vertex="1">
          <mxGeometry x="699" y="210" width="78" height="78" as="geometry" />
        </mxCell>
        <mxCell id="xFXEDuVV4IJmxfkYLhTL-7" value="Amazon CloudFront&lt;br&gt;GenAIDP Web Appl." style="sketch=0;points=[[0,0,0],[0.25,0,0],[0.5,0,0],[0.75,0,0],[1,0,0],[0,1,0],[0.25,1,0],[0.5,1,0],[0.75,1,0],[1,1,0],[0,0.25,0],[0,0.5,0],[0,0.75,0],[1,0.25,0],[1,0.5,0],[1,0.75,0]];outlineConnect=0;fontColor=#232F3E;fillColor=#8C4FFF;strokeColor=#ffffff;dashed=0;verticalLabelPosition=bottom;verticalAlign=top;align=center;html=1;fontSize=12;fontStyle=0;aspect=fixed;shape=mxgraph.aws4.resourceIcon;resIcon=mxgraph.aws4.cloudfront;" parent="1" vertex="1">
          <mxGeometry x="819.5" y="342" width="78" height="78" as="geometry" />
        </mxCell>
        <mxCell id="xFXEDuVV4IJmxfkYLhTL-10" value="" style="html=1;endArrow=block;elbow=vertical;startArrow=none;endFill=1;strokeColor=#545B64;rounded=0;" parent="1" edge="1">
          <mxGeometry width="100" relative="1" as="geometry">
            <mxPoint x="786" y="310" as="sourcePoint" />
            <mxPoint x="816" y="340" as="targetPoint" />
          </mxGeometry>
        </mxCell>
        <mxCell id="xFXEDuVV4IJmxfkYLhTL-13" value="Authenticated&amp;nbsp;&lt;br&gt;User" style="sketch=0;outlineConnect=0;fontColor=#232F3E;gradientColor=none;fillColor=#232F3D;strokeColor=none;dashed=0;verticalLabelPosition=bottom;verticalAlign=top;align=center;html=1;fontSize=12;fontStyle=0;aspect=fixed;pointerEvents=1;shape=mxgraph.aws4.authenticated_user;" parent="1" vertex="1">
          <mxGeometry x="990" y="288" width="78" height="78" as="geometry" />
        </mxCell>
        <mxCell id="xFXEDuVV4IJmxfkYLhTL-14" value="" style="edgeStyle=orthogonalEdgeStyle;html=1;endArrow=block;elbow=vertical;startArrow=none;endFill=1;strokeColor=#545B64;rounded=0;" parent="1" edge="1">
          <mxGeometry width="100" relative="1" as="geometry">
            <mxPoint x="930" y="339" as="sourcePoint" />
            <mxPoint x="980" y="339" as="targetPoint" />
          </mxGeometry>
        </mxCell>
        <mxCell id="xFXEDuVV4IJmxfkYLhTL-15" value="&lt;div style=&quot;background-color: rgb(255, 255, 255); line-height: 19px;&quot;&gt;&lt;p style=&quot;&quot;&gt;&lt;font style=&quot;font-size: 12px;&quot;&gt;GenAIDP Web UI&lt;/font&gt;&lt;/p&gt;&lt;div style=&quot;font-size: 14px;&quot;&gt;&lt;/div&gt;&lt;/div&gt;" style="text;html=1;strokeColor=none;fillColor=none;align=center;verticalAlign=middle;whiteSpace=wrap;rounded=0;" parent="1" vertex="1">
          <mxGeometry x="673.75" y="174" width="103.25" height="36" as="geometry" />
        </mxCell>
        <mxCell id="xFXEDuVV4IJmxfkYLhTL-17" value="" style="edgeStyle=orthogonalEdgeStyle;html=1;endArrow=block;elbow=vertical;startArrow=none;endFill=1;strokeColor=#545B64;rounded=0;" parent="1" edge="1">
          <mxGeometry width="100" relative="1" as="geometry">
            <mxPoint x="840" y="680.5" as="sourcePoint" />
            <mxPoint x="880" y="680.5" as="targetPoint" />
          </mxGeometry>
        </mxCell>
        <mxCell id="xFXEDuVV4IJmxfkYLhTL-18" value="" style="html=1;endArrow=block;elbow=vertical;startArrow=none;endFill=1;strokeColor=#545B64;rounded=0;" parent="1" edge="1">
          <mxGeometry width="100" relative="1" as="geometry">
            <mxPoint x="940" y="471" as="sourcePoint" />
            <mxPoint x="980" y="401" as="targetPoint" />
          </mxGeometry>
        </mxCell>
        <mxCell id="xFXEDuVV4IJmxfkYLhTL-19" value="" style="html=1;endArrow=block;elbow=vertical;startArrow=none;endFill=1;strokeColor=#545B64;rounded=0;" parent="1" edge="1">
          <mxGeometry width="100" relative="1" as="geometry">
            <mxPoint x="940" y="190" as="sourcePoint" />
            <mxPoint x="980" y="284" as="targetPoint" />
          </mxGeometry>
        </mxCell>
        <mxCell id="4ZSZ7nq5zMxmgsGtWjFn-113" value="Patterns" style="locked=1;" parent="0" visible="0" />
        <mxCell id="4ZSZ7nq5zMxmgsGtWjFn-234" value="" style="rounded=0;whiteSpace=wrap;html=1;" parent="4ZSZ7nq5zMxmgsGtWjFn-113" vertex="1">
          <mxGeometry x="4.5" y="922" width="1145.5" height="273" as="geometry" />
        </mxCell>
        <mxCell id="4ZSZ7nq5zMxmgsGtWjFn-114" style="edgeStyle=orthogonalEdgeStyle;rounded=0;orthogonalLoop=1;jettySize=auto;html=1;exitX=0.5;exitY=1;exitDx=0;exitDy=0;" parent="4ZSZ7nq5zMxmgsGtWjFn-113" edge="1">
          <mxGeometry relative="1" as="geometry">
            <mxPoint x="835" y="1025" as="sourcePoint" />
            <mxPoint x="835" y="1025" as="targetPoint" />
          </mxGeometry>
        </mxCell>
        <mxCell id="4ZSZ7nq5zMxmgsGtWjFn-115" value="" style="edgeStyle=orthogonalEdgeStyle;rounded=0;orthogonalLoop=1;jettySize=auto;html=1;" parent="4ZSZ7nq5zMxmgsGtWjFn-113" source="4ZSZ7nq5zMxmgsGtWjFn-116" target="4ZSZ7nq5zMxmgsGtWjFn-118" edge="1">
          <mxGeometry relative="1" as="geometry" />
        </mxCell>
        <mxCell id="4ZSZ7nq5zMxmgsGtWjFn-116" value="OCR Fn." style="outlineConnect=0;dashed=0;verticalLabelPosition=bottom;verticalAlign=top;align=center;html=1;shape=mxgraph.aws3.lambda_function;fillColor=#F58534;gradientColor=none;" parent="4ZSZ7nq5zMxmgsGtWjFn-113" vertex="1">
          <mxGeometry x="405" y="1045" width="69" height="72" as="geometry" />
        </mxCell>
        <mxCell id="4ZSZ7nq5zMxmgsGtWjFn-117" style="edgeStyle=orthogonalEdgeStyle;rounded=0;orthogonalLoop=1;jettySize=auto;html=1;exitX=1;exitY=0.5;exitDx=0;exitDy=0;exitPerimeter=0;entryX=0;entryY=0.5;entryDx=0;entryDy=0;entryPerimeter=0;" parent="4ZSZ7nq5zMxmgsGtWjFn-113" source="4ZSZ7nq5zMxmgsGtWjFn-118" target="4ZSZ7nq5zMxmgsGtWjFn-121" edge="1">
          <mxGeometry relative="1" as="geometry" />
        </mxCell>
        <mxCell id="4ZSZ7nq5zMxmgsGtWjFn-118" value="Page Classification &amp;amp;&amp;nbsp;&lt;br&gt;Grouping Fn." style="outlineConnect=0;dashed=0;verticalLabelPosition=bottom;verticalAlign=top;align=center;html=1;shape=mxgraph.aws3.lambda_function;fillColor=#F58534;gradientColor=none;" parent="4ZSZ7nq5zMxmgsGtWjFn-113" vertex="1">
          <mxGeometry x="520" y="1045" width="69" height="72" as="geometry" />
        </mxCell>
        <mxCell id="4ZSZ7nq5zMxmgsGtWjFn-119" value="Textract" style="sketch=0;points=[[0,0,0],[0.25,0,0],[0.5,0,0],[0.75,0,0],[1,0,0],[0,1,0],[0.25,1,0],[0.5,1,0],[0.75,1,0],[1,1,0],[0,0.25,0],[0,0.5,0],[0,0.75,0],[1,0.25,0],[1,0.5,0],[1,0.75,0]];outlineConnect=0;fontColor=#232F3E;fillColor=#01A88D;strokeColor=#ffffff;dashed=0;verticalLabelPosition=bottom;verticalAlign=top;align=center;html=1;fontSize=12;fontStyle=0;aspect=fixed;shape=mxgraph.aws4.resourceIcon;resIcon=mxgraph.aws4.textract;" parent="4ZSZ7nq5zMxmgsGtWjFn-113" vertex="1">
          <mxGeometry x="465.5" y="998" width="40" height="40" as="geometry" />
        </mxCell>
        <mxCell id="4ZSZ7nq5zMxmgsGtWjFn-120" value="Bedrock" style="shape=image;verticalLabelPosition=bottom;labelBackgroundColor=default;verticalAlign=top;aspect=fixed;imageAspect=0;image=data:image/png,iVBORw0KGgoAAAANSUhEUgAAAE0AAABOCAYAAABlnZseAAAAAXNSR0IArs4c6QAAAARnQU1BAACxjwv8YQUAAAAJcEhZcwAAEnQAABJ0Ad5mH3gAAAfwSURBVHhe7ZwJUFVVGMc/NjcUEzXRUNEBCVRE3AhEEE0WpdzSGre0aXS0aVInrbS0UacscbJyJqfJFMfQtNXEDRGX3HLBfckRBRNNpTRXQOj8j/fi83Uf3Hs49wF2fzN37rnn3Cfz/u8753zfd87RxWVFcglZGMJVuVsYwBJNAEs0ASzRBLBEE8ASTQBLNAEs0QSwRBPAEk0ASzQBnC5afFM/2t9nOJ3p+wrNC42m8IZNyUVpqy44LWD3r/sEJXeMoaRmrZWah+Te/odW5Z6m1ezacy2PqnoGwXTR6rp70LTgcJoYGEY1XN3oRmEBzTq2i3YxcQb5BtDg5m2oeZ16ytvVQ0DTREOXG+4XTB+GRFHT2p78y3+dfZSmHd5Bl+/e5u8AvNeNdVGI94KdgJl/5lLsllXKU9XBFNG6ePvQgrCefLxS6bppOe3Lv6w8aWMr4KTATrzOdeV8fneELxN5bocoimncnD9nXsmlqYe20wVmsWYhVbQmterQnJDuNLpVOy5A3p1b3MpAeV/enuKhk/i9rM9BsKy4EeRdo5ZS84D8grsUumGZacJJmT09XF1pMrOMU4ljaAwTrLD4Ps098RsFpi1W3jAHWBgEW5eXTS3WfMkvlFGHNrOQIlpGzyH0MXMfvDxq0JqLZ6nduqX09uHtdLOoUHnDHNQuOXZfOrcqXONYGahtZiBFtMhGzfg9cdv39Pz2H+nMzb/5s9m4Mwt3hJuLed6fVOd2fd45peQcNl/O4fdFnXvz8Q3XF6wMMtjMaxZSRXM20488cF8SmrainKRX+YUy6tBmFpUmGmZHdYYU5ezN6xSRnkrLzh1XaoiXUYc2s6jWlgayb12nUXvWK0/Ey6gzk2ovWmVgumhwTo06tlUdy9IEsEQToMKxZ99mrWlNVH9eTmKO7VoWEZQHgvJdvV/iZUddV3RmdcZQIGxpwV4NaX30oFLBAMqoQ5sWNV3d6EMWE+7o9SJ/Rk5NJnp+MBkYtrSGLBie2S6Cxvl34KHKXwV3adax3bzt3bbh1IC1F5UU06Izh2nm0Z10jbUDWNfirnEU5OVN90tKKPnUPppxZCfdY8G9FnqyHJWFbtGQyRjvH0rvlSGMKuhY/xByd3EtFdSntidNDuzMRT5xI59GM19qb/4l/hlHPBaibWddSg3MN146T5MOZtLxG9f4sz3onvM7xlAfn5ZKDXHrmndyHxfZkXXZYoZorevWp9ntu1OvJi2oqLhYOGGpWzT1S+gd7IHtJBG+6ZtyrcsW2aK18qxPO9nkg0SpLSIJS8MTgb1gEOazsFjl6VFs3zUimBm83z6CCyYjYWnY0tRf3r4LPpu5ujRVY4uoxaifkw3EUq0KqSRkRpCWf+rnRbxOD4YtDYM9LOtQ/EguGAZ7jG/brlxQ3nj8MWxpEMnR7GlPbzbgbowZzMt9mCWma1iiI2SPaSnhCTS8ZRDvkkiPAyQvkX9LzTlJw3al8To9GBYNlDd7wuyTQ6P5OqYtWASenLVV16ArW7RKnQgwe8Zv/U5TMPhyU4O60ImEl7lgt4oK+QILLpRRhza8g3edCXJskZtTaUXOKbpy7w4fx2BhIkt9whOBFnE+frQueiAv21uVvfVBeFisI2Rbmkyk/twbLp2jBacP8PFr6M5fHvkFUUYd2vBOWYJVdaRamkxsx1CjYMLpz4aR2/eLlBq5OHdgcRKYtRcqS3lmYNjSjOTMBvj601sstjOKrati1LLhdO/tM4zquLnTmL0baEn2MaVFHrot7derF/ndSM5sytNdNDfxOQKTxcqIfqWCiYBZ/bX9m3n58069aFVkEl0bMJ7+eG4sLX8mkf+NiqLb0uAiTPAPlZozU8G/ja1V04PDydPdg7snuAPRMVR1Zu2RsaNIt6UVFhfTJ2zWa7N2MS38PYvXTQgIpdN9x9AbbcJKrQuCIWcWmZ7Ku2Z5gqErHoobSR+ERHGh4KoErVuitIqDXZfAjB1Fui3NnormzOz9tpNM6NcPZJSGWhWdra+yLgmBZATo9giLpmI0Z6bVFWcf303zT+3n1qyi1+VIY9bTb9sPytNDMIZhQ6GtaNiael6CaBV2OYzkzBx1RWwAtBXMCIks4NYCWVmgtaNIbROlwpYGyutK5XVFLfR0z7Lewd80a2upqc6towC+w4YUQ2kiESAKxEFQju5YkQDdHlNFi32yhdSuaBSIgzwZxi9cKFdUMGCqaGUF8NUZU0UDEw9mSu+KSCgu7RavPBEvo85ZmC6abLB2iQzsCL9gpYZ4GXVocwaVKlp0Y19+Es8Ic9p311yKQx0Wgp2BVNFwLFEPWNH6isWoGbFDuKOLxQ29xDJfD2idHcDKuTOQIpqaAUnrMZB+YtEBjik6YiTrSicSR9PoVm2pgIVaM1jIpbVe6ghsJ3BEWW0ykSJa7JZv6c2srfxYIlJBRxNGcVcDxxZVAuo1oPSYwbSEDdqNatamDCZUyPoUvkEG4unFTE9fL1IiAhWMK/YHyuDMtvT0oneCu/FcG1aCIHCKzTZ2LRx5+2Z6+nqRKppKZ+8m9GlY7CNHF/FHcN5zStY2/gW10Ht0EcI5+7iiLaaIBiCAdUhWkLKOYw/0DfiPUDiOjaPYCLv+d8ex7cGMiqRlP401g+oglC1OE00FvtxHHXqQl0dNLlR1+R8SbHG6aI8D1S72rApYoglgiSaAJZoAlmgCWKIJYIkmgCWaAJZohiH6F+Y3aO0aEfmSAAAAAElFTkSuQmCC;" parent="4ZSZ7nq5zMxmgsGtWjFn-113" vertex="1">
          <mxGeometry x="585" y="998" width="40" height="40.52" as="geometry" />
        </mxCell>
        <mxCell id="4ZSZ7nq5zMxmgsGtWjFn-121" value="" style="outlineConnect=0;dashed=0;verticalLabelPosition=bottom;verticalAlign=top;align=center;html=1;shape=mxgraph.aws3.lambda_function;fillColor=#F58534;gradientColor=none;" parent="4ZSZ7nq5zMxmgsGtWjFn-113" vertex="1">
          <mxGeometry x="635.5" y="1045" width="69" height="72" as="geometry" />
        </mxCell>
        <mxCell id="4ZSZ7nq5zMxmgsGtWjFn-122" style="edgeStyle=orthogonalEdgeStyle;rounded=0;orthogonalLoop=1;jettySize=auto;html=1;exitX=0.5;exitY=1;exitDx=0;exitDy=0;" parent="4ZSZ7nq5zMxmgsGtWjFn-113" edge="1">
          <mxGeometry relative="1" as="geometry">
            <mxPoint x="24" y="1145" as="sourcePoint" />
            <mxPoint x="24" y="1145" as="targetPoint" />
          </mxGeometry>
        </mxCell>
        <mxCell id="4ZSZ7nq5zMxmgsGtWjFn-123" value="" style="outlineConnect=0;dashed=0;verticalLabelPosition=bottom;verticalAlign=top;align=center;html=1;shape=mxgraph.aws3.lambda_function;fillColor=#F58534;gradientColor=none;" parent="4ZSZ7nq5zMxmgsGtWjFn-113" vertex="1">
          <mxGeometry x="645.5" y="1055" width="69" height="72" as="geometry" />
        </mxCell>
        <mxCell id="4ZSZ7nq5zMxmgsGtWjFn-124" value="Page Group &lt;br&gt;Extraction Fn." style="outlineConnect=0;dashed=0;verticalLabelPosition=bottom;verticalAlign=top;align=center;html=1;shape=mxgraph.aws3.lambda_function;fillColor=#F58534;gradientColor=none;" parent="4ZSZ7nq5zMxmgsGtWjFn-113" vertex="1">
          <mxGeometry x="655.5" y="1065" width="69" height="72" as="geometry" />
        </mxCell>
        <mxCell id="4ZSZ7nq5zMxmgsGtWjFn-125" value="Bedrock" style="shape=image;verticalLabelPosition=bottom;labelBackgroundColor=default;verticalAlign=top;aspect=fixed;imageAspect=0;image=data:image/png,iVBORw0KGgoAAAANSUhEUgAAAE0AAABOCAYAAABlnZseAAAAAXNSR0IArs4c6QAAAARnQU1BAACxjwv8YQUAAAAJcEhZcwAAEnQAABJ0Ad5mH3gAAAfwSURBVHhe7ZwJUFVVGMc/NjcUEzXRUNEBCVRE3AhEEE0WpdzSGre0aXS0aVInrbS0UacscbJyJqfJFMfQtNXEDRGX3HLBfckRBRNNpTRXQOj8j/fi83Uf3Hs49wF2fzN37rnn3Cfz/u8753zfd87RxWVFcglZGMJVuVsYwBJNAEs0ASzRBLBEE8ASTQBLNAEs0QSwRBPAEk0ASzQBnC5afFM/2t9nOJ3p+wrNC42m8IZNyUVpqy44LWD3r/sEJXeMoaRmrZWah+Te/odW5Z6m1ezacy2PqnoGwXTR6rp70LTgcJoYGEY1XN3oRmEBzTq2i3YxcQb5BtDg5m2oeZ16ytvVQ0DTREOXG+4XTB+GRFHT2p78y3+dfZSmHd5Bl+/e5u8AvNeNdVGI94KdgJl/5lLsllXKU9XBFNG6ePvQgrCefLxS6bppOe3Lv6w8aWMr4KTATrzOdeV8fneELxN5bocoimncnD9nXsmlqYe20wVmsWYhVbQmterQnJDuNLpVOy5A3p1b3MpAeV/enuKhk/i9rM9BsKy4EeRdo5ZS84D8grsUumGZacJJmT09XF1pMrOMU4ljaAwTrLD4Ps098RsFpi1W3jAHWBgEW5eXTS3WfMkvlFGHNrOQIlpGzyH0MXMfvDxq0JqLZ6nduqX09uHtdLOoUHnDHNQuOXZfOrcqXONYGahtZiBFtMhGzfg9cdv39Pz2H+nMzb/5s9m4Mwt3hJuLed6fVOd2fd45peQcNl/O4fdFnXvz8Q3XF6wMMtjMaxZSRXM20488cF8SmrainKRX+YUy6tBmFpUmGmZHdYYU5ezN6xSRnkrLzh1XaoiXUYc2s6jWlgayb12nUXvWK0/Ey6gzk2ovWmVgumhwTo06tlUdy9IEsEQToMKxZ99mrWlNVH9eTmKO7VoWEZQHgvJdvV/iZUddV3RmdcZQIGxpwV4NaX30oFLBAMqoQ5sWNV3d6EMWE+7o9SJ/Rk5NJnp+MBkYtrSGLBie2S6Cxvl34KHKXwV3adax3bzt3bbh1IC1F5UU06Izh2nm0Z10jbUDWNfirnEU5OVN90tKKPnUPppxZCfdY8G9FnqyHJWFbtGQyRjvH0rvlSGMKuhY/xByd3EtFdSntidNDuzMRT5xI59GM19qb/4l/hlHPBaibWddSg3MN146T5MOZtLxG9f4sz3onvM7xlAfn5ZKDXHrmndyHxfZkXXZYoZorevWp9ntu1OvJi2oqLhYOGGpWzT1S+gd7IHtJBG+6ZtyrcsW2aK18qxPO9nkg0SpLSIJS8MTgb1gEOazsFjl6VFs3zUimBm83z6CCyYjYWnY0tRf3r4LPpu5ujRVY4uoxaifkw3EUq0KqSRkRpCWf+rnRbxOD4YtDYM9LOtQ/EguGAZ7jG/brlxQ3nj8MWxpEMnR7GlPbzbgbowZzMt9mCWma1iiI2SPaSnhCTS8ZRDvkkiPAyQvkX9LzTlJw3al8To9GBYNlDd7wuyTQ6P5OqYtWASenLVV16ArW7RKnQgwe8Zv/U5TMPhyU4O60ImEl7lgt4oK+QILLpRRhza8g3edCXJskZtTaUXOKbpy7w4fx2BhIkt9whOBFnE+frQueiAv21uVvfVBeFisI2Rbmkyk/twbLp2jBacP8PFr6M5fHvkFUUYd2vBOWYJVdaRamkxsx1CjYMLpz4aR2/eLlBq5OHdgcRKYtRcqS3lmYNjSjOTMBvj601sstjOKrati1LLhdO/tM4zquLnTmL0baEn2MaVFHrot7derF/ndSM5sytNdNDfxOQKTxcqIfqWCiYBZ/bX9m3n58069aFVkEl0bMJ7+eG4sLX8mkf+NiqLb0uAiTPAPlZozU8G/ja1V04PDydPdg7snuAPRMVR1Zu2RsaNIt6UVFhfTJ2zWa7N2MS38PYvXTQgIpdN9x9AbbcJKrQuCIWcWmZ7Ku2Z5gqErHoobSR+ERHGh4KoErVuitIqDXZfAjB1Fui3NnormzOz9tpNM6NcPZJSGWhWdra+yLgmBZATo9giLpmI0Z6bVFWcf303zT+3n1qyi1+VIY9bTb9sPytNDMIZhQ6GtaNiael6CaBV2OYzkzBx1RWwAtBXMCIks4NYCWVmgtaNIbROlwpYGyutK5XVFLfR0z7Lewd80a2upqc6towC+w4YUQ2kiESAKxEFQju5YkQDdHlNFi32yhdSuaBSIgzwZxi9cKFdUMGCqaGUF8NUZU0UDEw9mSu+KSCgu7RavPBEvo85ZmC6abLB2iQzsCL9gpYZ4GXVocwaVKlp0Y19+Es8Ic9p311yKQx0Wgp2BVNFwLFEPWNH6isWoGbFDuKOLxQ29xDJfD2idHcDKuTOQIpqaAUnrMZB+YtEBjik6YiTrSicSR9PoVm2pgIVaM1jIpbVe6ghsJ3BEWW0ykSJa7JZv6c2srfxYIlJBRxNGcVcDxxZVAuo1oPSYwbSEDdqNatamDCZUyPoUvkEG4unFTE9fL1IiAhWMK/YHyuDMtvT0oneCu/FcG1aCIHCKzTZ2LRx5+2Z6+nqRKppKZ+8m9GlY7CNHF/FHcN5zStY2/gW10Ht0EcI5+7iiLaaIBiCAdUhWkLKOYw/0DfiPUDiOjaPYCLv+d8ex7cGMiqRlP401g+oglC1OE00FvtxHHXqQl0dNLlR1+R8SbHG6aI8D1S72rApYoglgiSaAJZoAlmgCWKIJYIkmgCWaAJZohiH6F+Y3aO0aEfmSAAAAAElFTkSuQmCC;" parent="4ZSZ7nq5zMxmgsGtWjFn-113" vertex="1">
          <mxGeometry x="702" y="998" width="40" height="40.52" as="geometry" />
        </mxCell>
        <mxCell id="4ZSZ7nq5zMxmgsGtWjFn-126" style="edgeStyle=orthogonalEdgeStyle;rounded=0;orthogonalLoop=1;jettySize=auto;html=1;exitX=1;exitY=0.5;exitDx=0;exitDy=0;exitPerimeter=0;entryX=0;entryY=0.5;entryDx=0;entryDy=0;entryPerimeter=0;" parent="4ZSZ7nq5zMxmgsGtWjFn-113" source="4ZSZ7nq5zMxmgsGtWjFn-118" target="4ZSZ7nq5zMxmgsGtWjFn-124" edge="1">
          <mxGeometry relative="1" as="geometry" />
        </mxCell>
        <mxCell id="4ZSZ7nq5zMxmgsGtWjFn-127" style="edgeStyle=orthogonalEdgeStyle;rounded=0;orthogonalLoop=1;jettySize=auto;html=1;exitX=1;exitY=0.5;exitDx=0;exitDy=0;exitPerimeter=0;entryX=0;entryY=0.5;entryDx=0;entryDy=0;entryPerimeter=0;" parent="4ZSZ7nq5zMxmgsGtWjFn-113" source="4ZSZ7nq5zMxmgsGtWjFn-118" target="4ZSZ7nq5zMxmgsGtWjFn-123" edge="1">
          <mxGeometry relative="1" as="geometry" />
        </mxCell>
        <mxCell id="4ZSZ7nq5zMxmgsGtWjFn-128" style="edgeStyle=orthogonalEdgeStyle;rounded=0;orthogonalLoop=1;jettySize=auto;html=1;entryX=0;entryY=0.5;entryDx=0;entryDy=0;" parent="4ZSZ7nq5zMxmgsGtWjFn-113" source="4ZSZ7nq5zMxmgsGtWjFn-129" target="4ZSZ7nq5zMxmgsGtWjFn-131" edge="1">
          <mxGeometry relative="1" as="geometry" />
        </mxCell>
        <mxCell id="4ZSZ7nq5zMxmgsGtWjFn-129" value="Invoke BDA Fn." style="outlineConnect=0;dashed=0;verticalLabelPosition=bottom;verticalAlign=top;align=center;html=1;shape=mxgraph.aws3.lambda_function;fillColor=#F58534;gradientColor=none;" parent="4ZSZ7nq5zMxmgsGtWjFn-113" vertex="1">
          <mxGeometry x="800.5" y="1034" width="69" height="72" as="geometry" />
        </mxCell>
        <mxCell id="4ZSZ7nq5zMxmgsGtWjFn-130" style="edgeStyle=orthogonalEdgeStyle;rounded=0;orthogonalLoop=1;jettySize=auto;html=1;exitX=1;exitY=0.5;exitDx=0;exitDy=0;entryX=0;entryY=0.5;entryDx=0;entryDy=0;entryPerimeter=0;" parent="4ZSZ7nq5zMxmgsGtWjFn-113" source="4ZSZ7nq5zMxmgsGtWjFn-131" target="4ZSZ7nq5zMxmgsGtWjFn-132" edge="1">
          <mxGeometry relative="1" as="geometry" />
        </mxCell>
        <mxCell id="4ZSZ7nq5zMxmgsGtWjFn-131" value="Data Automation&#xa;Â Project" style="shape=image;verticalLabelPosition=bottom;labelBackgroundColor=default;verticalAlign=top;aspect=fixed;imageAspect=0;image=data:image/png,iVBORw0KGgoAAAANSUhEUgAAAE0AAABOCAYAAABlnZseAAAAAXNSR0IArs4c6QAAAARnQU1BAACxjwv8YQUAAAAJcEhZcwAAEnQAABJ0Ad5mH3gAAAfwSURBVHhe7ZwJUFVVGMc/NjcUEzXRUNEBCVRE3AhEEE0WpdzSGre0aXS0aVInrbS0UacscbJyJqfJFMfQtNXEDRGX3HLBfckRBRNNpTRXQOj8j/fi83Uf3Hs49wF2fzN37rnn3Cfz/u8753zfd87RxWVFcglZGMJVuVsYwBJNAEs0ASzRBLBEE8ASTQBLNAEs0QSwRBPAEk0ASzQBnC5afFM/2t9nOJ3p+wrNC42m8IZNyUVpqy44LWD3r/sEJXeMoaRmrZWah+Te/odW5Z6m1ezacy2PqnoGwXTR6rp70LTgcJoYGEY1XN3oRmEBzTq2i3YxcQb5BtDg5m2oeZ16ytvVQ0DTREOXG+4XTB+GRFHT2p78y3+dfZSmHd5Bl+/e5u8AvNeNdVGI94KdgJl/5lLsllXKU9XBFNG6ePvQgrCefLxS6bppOe3Lv6w8aWMr4KTATrzOdeV8fneELxN5bocoimncnD9nXsmlqYe20wVmsWYhVbQmterQnJDuNLpVOy5A3p1b3MpAeV/enuKhk/i9rM9BsKy4EeRdo5ZS84D8grsUumGZacJJmT09XF1pMrOMU4ljaAwTrLD4Ps098RsFpi1W3jAHWBgEW5eXTS3WfMkvlFGHNrOQIlpGzyH0MXMfvDxq0JqLZ6nduqX09uHtdLOoUHnDHNQuOXZfOrcqXONYGahtZiBFtMhGzfg9cdv39Pz2H+nMzb/5s9m4Mwt3hJuLed6fVOd2fd45peQcNl/O4fdFnXvz8Q3XF6wMMtjMaxZSRXM20488cF8SmrainKRX+YUy6tBmFpUmGmZHdYYU5ezN6xSRnkrLzh1XaoiXUYc2s6jWlgayb12nUXvWK0/Ey6gzk2ovWmVgumhwTo06tlUdy9IEsEQToMKxZ99mrWlNVH9eTmKO7VoWEZQHgvJdvV/iZUddV3RmdcZQIGxpwV4NaX30oFLBAMqoQ5sWNV3d6EMWE+7o9SJ/Rk5NJnp+MBkYtrSGLBie2S6Cxvl34KHKXwV3adax3bzt3bbh1IC1F5UU06Izh2nm0Z10jbUDWNfirnEU5OVN90tKKPnUPppxZCfdY8G9FnqyHJWFbtGQyRjvH0rvlSGMKuhY/xByd3EtFdSntidNDuzMRT5xI59GM19qb/4l/hlHPBaibWddSg3MN146T5MOZtLxG9f4sz3onvM7xlAfn5ZKDXHrmndyHxfZkXXZYoZorevWp9ntu1OvJi2oqLhYOGGpWzT1S+gd7IHtJBG+6ZtyrcsW2aK18qxPO9nkg0SpLSIJS8MTgb1gEOazsFjl6VFs3zUimBm83z6CCyYjYWnY0tRf3r4LPpu5ujRVY4uoxaifkw3EUq0KqSRkRpCWf+rnRbxOD4YtDYM9LOtQ/EguGAZ7jG/brlxQ3nj8MWxpEMnR7GlPbzbgbowZzMt9mCWma1iiI2SPaSnhCTS8ZRDvkkiPAyQvkX9LzTlJw3al8To9GBYNlDd7wuyTQ6P5OqYtWASenLVV16ArW7RKnQgwe8Zv/U5TMPhyU4O60ImEl7lgt4oK+QILLpRRhza8g3edCXJskZtTaUXOKbpy7w4fx2BhIkt9whOBFnE+frQueiAv21uVvfVBeFisI2Rbmkyk/twbLp2jBacP8PFr6M5fHvkFUUYd2vBOWYJVdaRamkxsx1CjYMLpz4aR2/eLlBq5OHdgcRKYtRcqS3lmYNjSjOTMBvj601sstjOKrati1LLhdO/tM4zquLnTmL0baEn2MaVFHrot7derF/ndSM5sytNdNDfxOQKTxcqIfqWCiYBZ/bX9m3n58069aFVkEl0bMJ7+eG4sLX8mkf+NiqLb0uAiTPAPlZozU8G/ja1V04PDydPdg7snuAPRMVR1Zu2RsaNIt6UVFhfTJ2zWa7N2MS38PYvXTQgIpdN9x9AbbcJKrQuCIWcWmZ7Ku2Z5gqErHoobSR+ERHGh4KoErVuitIqDXZfAjB1Fui3NnormzOz9tpNM6NcPZJSGWhWdra+yLgmBZATo9giLpmI0Z6bVFWcf303zT+3n1qyi1+VIY9bTb9sPytNDMIZhQ6GtaNiael6CaBV2OYzkzBx1RWwAtBXMCIks4NYCWVmgtaNIbROlwpYGyutK5XVFLfR0z7Lewd80a2upqc6towC+w4YUQ2kiESAKxEFQju5YkQDdHlNFi32yhdSuaBSIgzwZxi9cKFdUMGCqaGUF8NUZU0UDEw9mSu+KSCgu7RavPBEvo85ZmC6abLB2iQzsCL9gpYZ4GXVocwaVKlp0Y19+Es8Ic9p311yKQx0Wgp2BVNFwLFEPWNH6isWoGbFDuKOLxQ29xDJfD2idHcDKuTOQIpqaAUnrMZB+YtEBjik6YiTrSicSR9PoVm2pgIVaM1jIpbVe6ghsJ3BEWW0ykSJa7JZv6c2srfxYIlJBRxNGcVcDxxZVAuo1oPSYwbSEDdqNatamDCZUyPoUvkEG4unFTE9fL1IiAhWMK/YHyuDMtvT0oneCu/FcG1aCIHCKzTZ2LRx5+2Z6+nqRKppKZ+8m9GlY7CNHF/FHcN5zStY2/gW10Ht0EcI5+7iiLaaIBiCAdUhWkLKOYw/0DfiPUDiOjaPYCLv+d8ex7cGMiqRlP401g+oglC1OE00FvtxHHXqQl0dNLlR1+R8SbHG6aI8D1S72rApYoglgiSaAJZoAlmgCWKIJYIkmgCWaAJZohiH6F+Y3aO0aEfmSAAAAAElFTkSuQmCC;" parent="4ZSZ7nq5zMxmgsGtWjFn-113" vertex="1">
          <mxGeometry x="917" y="1036.37" width="66.39" height="67.26" as="geometry" />
        </mxCell>
        <mxCell id="4ZSZ7nq5zMxmgsGtWjFn-132" value="Process Results Fn." style="outlineConnect=0;dashed=0;verticalLabelPosition=bottom;verticalAlign=top;align=center;html=1;shape=mxgraph.aws3.lambda_function;fillColor=#F58534;gradientColor=none;" parent="4ZSZ7nq5zMxmgsGtWjFn-113" vertex="1">
          <mxGeometry x="1030" y="1034" width="69" height="72" as="geometry" />
        </mxCell>
        <mxCell id="4ZSZ7nq5zMxmgsGtWjFn-133" value="&lt;u style=&quot;border-color: var(--border-color); color: rgb(0, 0, 0); text-align: center; background-color: rgb(255, 255, 255);&quot;&gt;Pattern 2: Bedrock Classification and Extraction&lt;/u&gt;" style="sketch=0;outlineConnect=0;gradientColor=none;html=1;whiteSpace=wrap;fontSize=12;fontStyle=0;shape=mxgraph.aws4.group;grIcon=mxgraph.aws4.group_aws_step_functions_workflow;strokeColor=#545B64;fillColor=none;verticalAlign=top;align=left;spacingLeft=30;fontColor=#545B64;dashed=0;" parent="4ZSZ7nq5zMxmgsGtWjFn-113" vertex="1">
          <mxGeometry x="390" y="964" width="370" height="220" as="geometry" />
        </mxCell>
        <mxCell id="4ZSZ7nq5zMxmgsGtWjFn-134" value="&lt;u style=&quot;border-color: var(--border-color); color: rgb(0, 0, 0); text-align: center; background-color: rgb(255, 255, 255);&quot;&gt;Pattern 3:&amp;nbsp;Bedrock Data Automation (BDA) Workflow&lt;/u&gt;" style="sketch=0;outlineConnect=0;gradientColor=none;html=1;whiteSpace=wrap;fontSize=12;fontStyle=0;shape=mxgraph.aws4.group;grIcon=mxgraph.aws4.group_aws_step_functions_workflow;strokeColor=#545B64;fillColor=none;verticalAlign=top;align=left;spacingLeft=30;fontColor=#545B64;dashed=0;" parent="4ZSZ7nq5zMxmgsGtWjFn-113" vertex="1">
          <mxGeometry x="770" y="964" width="370" height="220" as="geometry" />
        </mxCell>
        <mxCell id="4ZSZ7nq5zMxmgsGtWjFn-135" value="&lt;span style=&quot;border-color: var(--border-color); color: rgb(0, 0, 0); text-align: center; background-color: rgb(255, 255, 255);&quot;&gt;&lt;font style=&quot;font-size: 12px;&quot;&gt;&lt;u&gt;Pattern 1: UDOP Classification with Claude Extraction&lt;/u&gt;&lt;/font&gt;&lt;/span&gt;" style="sketch=0;outlineConnect=0;gradientColor=none;html=1;whiteSpace=wrap;fontSize=12;fontStyle=0;shape=mxgraph.aws4.group;grIcon=mxgraph.aws4.group_aws_step_functions_workflow;strokeColor=#545B64;fillColor=none;verticalAlign=top;align=left;spacingLeft=30;fontColor=#545B64;dashed=0;" parent="4ZSZ7nq5zMxmgsGtWjFn-113" vertex="1">
          <mxGeometry x="10" y="964" width="370" height="220" as="geometry" />
        </mxCell>
        <mxCell id="4ZSZ7nq5zMxmgsGtWjFn-136" value="" style="edgeStyle=orthogonalEdgeStyle;rounded=0;orthogonalLoop=1;jettySize=auto;html=1;" parent="4ZSZ7nq5zMxmgsGtWjFn-113" source="4ZSZ7nq5zMxmgsGtWjFn-137" target="4ZSZ7nq5zMxmgsGtWjFn-139" edge="1">
          <mxGeometry relative="1" as="geometry" />
        </mxCell>
        <mxCell id="4ZSZ7nq5zMxmgsGtWjFn-137" value="OCR Fn." style="outlineConnect=0;dashed=0;verticalLabelPosition=bottom;verticalAlign=top;align=center;html=1;shape=mxgraph.aws3.lambda_function;fillColor=#F58534;gradientColor=none;" parent="4ZSZ7nq5zMxmgsGtWjFn-113" vertex="1">
          <mxGeometry x="30" y="1049" width="69" height="72" as="geometry" />
        </mxCell>
        <mxCell id="4ZSZ7nq5zMxmgsGtWjFn-138" style="edgeStyle=orthogonalEdgeStyle;rounded=0;orthogonalLoop=1;jettySize=auto;html=1;exitX=1;exitY=0.5;exitDx=0;exitDy=0;exitPerimeter=0;entryX=0;entryY=0.5;entryDx=0;entryDy=0;entryPerimeter=0;" parent="4ZSZ7nq5zMxmgsGtWjFn-113" source="4ZSZ7nq5zMxmgsGtWjFn-139" target="4ZSZ7nq5zMxmgsGtWjFn-141" edge="1">
          <mxGeometry relative="1" as="geometry" />
        </mxCell>
        <mxCell id="4ZSZ7nq5zMxmgsGtWjFn-139" value="Page Classification &amp;amp;&amp;nbsp;&lt;br&gt;Grouping Fn." style="outlineConnect=0;dashed=0;verticalLabelPosition=bottom;verticalAlign=top;align=center;html=1;shape=mxgraph.aws3.lambda_function;fillColor=#F58534;gradientColor=none;" parent="4ZSZ7nq5zMxmgsGtWjFn-113" vertex="1">
          <mxGeometry x="145" y="1049" width="69" height="72" as="geometry" />
        </mxCell>
        <mxCell id="4ZSZ7nq5zMxmgsGtWjFn-140" value="Textract" style="sketch=0;points=[[0,0,0],[0.25,0,0],[0.5,0,0],[0.75,0,0],[1,0,0],[0,1,0],[0.25,1,0],[0.5,1,0],[0.75,1,0],[1,1,0],[0,0.25,0],[0,0.5,0],[0,0.75,0],[1,0.25,0],[1,0.5,0],[1,0.75,0]];outlineConnect=0;fontColor=#232F3E;fillColor=#01A88D;strokeColor=#ffffff;dashed=0;verticalLabelPosition=bottom;verticalAlign=top;align=center;html=1;fontSize=12;fontStyle=0;aspect=fixed;shape=mxgraph.aws4.resourceIcon;resIcon=mxgraph.aws4.textract;" parent="4ZSZ7nq5zMxmgsGtWjFn-113" vertex="1">
          <mxGeometry x="90.5" y="998" width="40" height="40" as="geometry" />
        </mxCell>
        <mxCell id="4ZSZ7nq5zMxmgsGtWjFn-141" value="" style="outlineConnect=0;dashed=0;verticalLabelPosition=bottom;verticalAlign=top;align=center;html=1;shape=mxgraph.aws3.lambda_function;fillColor=#F58534;gradientColor=none;" parent="4ZSZ7nq5zMxmgsGtWjFn-113" vertex="1">
          <mxGeometry x="260.5" y="1049" width="69" height="72" as="geometry" />
        </mxCell>
        <mxCell id="4ZSZ7nq5zMxmgsGtWjFn-142" value="" style="outlineConnect=0;dashed=0;verticalLabelPosition=bottom;verticalAlign=top;align=center;html=1;shape=mxgraph.aws3.lambda_function;fillColor=#F58534;gradientColor=none;" parent="4ZSZ7nq5zMxmgsGtWjFn-113" vertex="1">
          <mxGeometry x="270.5" y="1059" width="69" height="72" as="geometry" />
        </mxCell>
        <mxCell id="4ZSZ7nq5zMxmgsGtWjFn-143" value="Page Group &lt;br&gt;Extraction Fn." style="outlineConnect=0;dashed=0;verticalLabelPosition=bottom;verticalAlign=top;align=center;html=1;shape=mxgraph.aws3.lambda_function;fillColor=#F58534;gradientColor=none;" parent="4ZSZ7nq5zMxmgsGtWjFn-113" vertex="1">
          <mxGeometry x="280.5" y="1069" width="69" height="72" as="geometry" />
        </mxCell>
        <mxCell id="4ZSZ7nq5zMxmgsGtWjFn-144" value="Bedrock" style="shape=image;verticalLabelPosition=bottom;labelBackgroundColor=default;verticalAlign=top;aspect=fixed;imageAspect=0;image=data:image/png,iVBORw0KGgoAAAANSUhEUgAAAE0AAABOCAYAAABlnZseAAAAAXNSR0IArs4c6QAAAARnQU1BAACxjwv8YQUAAAAJcEhZcwAAEnQAABJ0Ad5mH3gAAAfwSURBVHhe7ZwJUFVVGMc/NjcUEzXRUNEBCVRE3AhEEE0WpdzSGre0aXS0aVInrbS0UacscbJyJqfJFMfQtNXEDRGX3HLBfckRBRNNpTRXQOj8j/fi83Uf3Hs49wF2fzN37rnn3Cfz/u8753zfd87RxWVFcglZGMJVuVsYwBJNAEs0ASzRBLBEE8ASTQBLNAEs0QSwRBPAEk0ASzQBnC5afFM/2t9nOJ3p+wrNC42m8IZNyUVpqy44LWD3r/sEJXeMoaRmrZWah+Te/odW5Z6m1ezacy2PqnoGwXTR6rp70LTgcJoYGEY1XN3oRmEBzTq2i3YxcQb5BtDg5m2oeZ16ytvVQ0DTREOXG+4XTB+GRFHT2p78y3+dfZSmHd5Bl+/e5u8AvNeNdVGI94KdgJl/5lLsllXKU9XBFNG6ePvQgrCefLxS6bppOe3Lv6w8aWMr4KTATrzOdeV8fneELxN5bocoimncnD9nXsmlqYe20wVmsWYhVbQmterQnJDuNLpVOy5A3p1b3MpAeV/enuKhk/i9rM9BsKy4EeRdo5ZS84D8grsUumGZacJJmT09XF1pMrOMU4ljaAwTrLD4Ps098RsFpi1W3jAHWBgEW5eXTS3WfMkvlFGHNrOQIlpGzyH0MXMfvDxq0JqLZ6nduqX09uHtdLOoUHnDHNQuOXZfOrcqXONYGahtZiBFtMhGzfg9cdv39Pz2H+nMzb/5s9m4Mwt3hJuLed6fVOd2fd45peQcNl/O4fdFnXvz8Q3XF6wMMtjMaxZSRXM20488cF8SmrainKRX+YUy6tBmFpUmGmZHdYYU5ezN6xSRnkrLzh1XaoiXUYc2s6jWlgayb12nUXvWK0/Ey6gzk2ovWmVgumhwTo06tlUdy9IEsEQToMKxZ99mrWlNVH9eTmKO7VoWEZQHgvJdvV/iZUddV3RmdcZQIGxpwV4NaX30oFLBAMqoQ5sWNV3d6EMWE+7o9SJ/Rk5NJnp+MBkYtrSGLBie2S6Cxvl34KHKXwV3adax3bzt3bbh1IC1F5UU06Izh2nm0Z10jbUDWNfirnEU5OVN90tKKPnUPppxZCfdY8G9FnqyHJWFbtGQyRjvH0rvlSGMKuhY/xByd3EtFdSntidNDuzMRT5xI59GM19qb/4l/hlHPBaibWddSg3MN146T5MOZtLxG9f4sz3onvM7xlAfn5ZKDXHrmndyHxfZkXXZYoZorevWp9ntu1OvJi2oqLhYOGGpWzT1S+gd7IHtJBG+6ZtyrcsW2aK18qxPO9nkg0SpLSIJS8MTgb1gEOazsFjl6VFs3zUimBm83z6CCyYjYWnY0tRf3r4LPpu5ujRVY4uoxaifkw3EUq0KqSRkRpCWf+rnRbxOD4YtDYM9LOtQ/EguGAZ7jG/brlxQ3nj8MWxpEMnR7GlPbzbgbowZzMt9mCWma1iiI2SPaSnhCTS8ZRDvkkiPAyQvkX9LzTlJw3al8To9GBYNlDd7wuyTQ6P5OqYtWASenLVV16ArW7RKnQgwe8Zv/U5TMPhyU4O60ImEl7lgt4oK+QILLpRRhza8g3edCXJskZtTaUXOKbpy7w4fx2BhIkt9whOBFnE+frQueiAv21uVvfVBeFisI2Rbmkyk/twbLp2jBacP8PFr6M5fHvkFUUYd2vBOWYJVdaRamkxsx1CjYMLpz4aR2/eLlBq5OHdgcRKYtRcqS3lmYNjSjOTMBvj601sstjOKrati1LLhdO/tM4zquLnTmL0baEn2MaVFHrot7derF/ndSM5sytNdNDfxOQKTxcqIfqWCiYBZ/bX9m3n58069aFVkEl0bMJ7+eG4sLX8mkf+NiqLb0uAiTPAPlZozU8G/ja1V04PDydPdg7snuAPRMVR1Zu2RsaNIt6UVFhfTJ2zWa7N2MS38PYvXTQgIpdN9x9AbbcJKrQuCIWcWmZ7Ku2Z5gqErHoobSR+ERHGh4KoErVuitIqDXZfAjB1Fui3NnormzOz9tpNM6NcPZJSGWhWdra+yLgmBZATo9giLpmI0Z6bVFWcf303zT+3n1qyi1+VIY9bTb9sPytNDMIZhQ6GtaNiael6CaBV2OYzkzBx1RWwAtBXMCIks4NYCWVmgtaNIbROlwpYGyutK5XVFLfR0z7Lewd80a2upqc6towC+w4YUQ2kiESAKxEFQju5YkQDdHlNFi32yhdSuaBSIgzwZxi9cKFdUMGCqaGUF8NUZU0UDEw9mSu+KSCgu7RavPBEvo85ZmC6abLB2iQzsCL9gpYZ4GXVocwaVKlp0Y19+Es8Ic9p311yKQx0Wgp2BVNFwLFEPWNH6isWoGbFDuKOLxQ29xDJfD2idHcDKuTOQIpqaAUnrMZB+YtEBjik6YiTrSicSR9PoVm2pgIVaM1jIpbVe6ghsJ3BEWW0ykSJa7JZv6c2srfxYIlJBRxNGcVcDxxZVAuo1oPSYwbSEDdqNatamDCZUyPoUvkEG4unFTE9fL1IiAhWMK/YHyuDMtvT0oneCu/FcG1aCIHCKzTZ2LRx5+2Z6+nqRKppKZ+8m9GlY7CNHF/FHcN5zStY2/gW10Ht0EcI5+7iiLaaIBiCAdUhWkLKOYw/0DfiPUDiOjaPYCLv+d8ex7cGMiqRlP401g+oglC1OE00FvtxHHXqQl0dNLlR1+R8SbHG6aI8D1S72rApYoglgiSaAJZoAlmgCWKIJYIkmgCWaAJZohiH6F+Y3aO0aEfmSAAAAAElFTkSuQmCC;" parent="4ZSZ7nq5zMxmgsGtWjFn-113" vertex="1">
          <mxGeometry x="327" y="998" width="40" height="40.52" as="geometry" />
        </mxCell>
        <mxCell id="4ZSZ7nq5zMxmgsGtWjFn-145" style="edgeStyle=orthogonalEdgeStyle;rounded=0;orthogonalLoop=1;jettySize=auto;html=1;exitX=1;exitY=0.5;exitDx=0;exitDy=0;exitPerimeter=0;entryX=0;entryY=0.5;entryDx=0;entryDy=0;entryPerimeter=0;" parent="4ZSZ7nq5zMxmgsGtWjFn-113" source="4ZSZ7nq5zMxmgsGtWjFn-139" target="4ZSZ7nq5zMxmgsGtWjFn-143" edge="1">
          <mxGeometry relative="1" as="geometry" />
        </mxCell>
        <mxCell id="4ZSZ7nq5zMxmgsGtWjFn-146" style="edgeStyle=orthogonalEdgeStyle;rounded=0;orthogonalLoop=1;jettySize=auto;html=1;exitX=1;exitY=0.5;exitDx=0;exitDy=0;exitPerimeter=0;entryX=0;entryY=0.5;entryDx=0;entryDy=0;entryPerimeter=0;" parent="4ZSZ7nq5zMxmgsGtWjFn-113" source="4ZSZ7nq5zMxmgsGtWjFn-139" target="4ZSZ7nq5zMxmgsGtWjFn-142" edge="1">
          <mxGeometry relative="1" as="geometry" />
        </mxCell>
        <mxCell id="4ZSZ7nq5zMxmgsGtWjFn-147" value="SageMaker" style="sketch=0;points=[[0,0,0],[0.25,0,0],[0.5,0,0],[0.75,0,0],[1,0,0],[0,1,0],[0.25,1,0],[0.5,1,0],[0.75,1,0],[1,1,0],[0,0.25,0],[0,0.5,0],[0,0.75,0],[1,0.25,0],[1,0.5,0],[1,0.75,0]];outlineConnect=0;fontColor=#232F3E;fillColor=#01A88D;strokeColor=#ffffff;dashed=0;verticalLabelPosition=bottom;verticalAlign=top;align=center;html=1;fontSize=12;fontStyle=0;aspect=fixed;shape=mxgraph.aws4.resourceIcon;resIcon=mxgraph.aws4.sagemaker;" parent="4ZSZ7nq5zMxmgsGtWjFn-113" vertex="1">
          <mxGeometry x="210" y="999" width="38" height="38" as="geometry" />
        </mxCell>
        <mxCell id="4ZSZ7nq5zMxmgsGtWjFn-231" value="&lt;i style=&quot;font-weight: normal;&quot;&gt;&lt;font style=&quot;font-size: 18px;&quot;&gt;Available prebuilt patterns, so far...&lt;/font&gt;&lt;/i&gt;" style="text;strokeColor=none;fillColor=none;html=1;fontSize=24;fontStyle=1;verticalAlign=middle;align=center;" parent="4ZSZ7nq5zMxmgsGtWjFn-113" vertex="1">
          <mxGeometry x="10" y="918" width="280" height="45" as="geometry" />
        </mxCell>
      </root>
    </mxGraphModel>
  </diagram>
</mxfile>
